<?xml version="1.0" encoding="UTF-8"?>
<svg version="1.1" xmlns="http://www.w3.org/2000/svg" width="512" height="512">
<path d="M0 0 C5.93464237 -0.00563633 11.86907236 -0.03009921 17.80364609 -0.05797195 C22.45677352 -0.07654443 27.10984674 -0.08179951 31.76300812 -0.08333588 C33.95578516 -0.08633976 36.14856178 -0.0942905 38.34130096 -0.10752106 C41.36605949 -0.1245804 44.39025196 -0.1227098 47.41503906 -0.11621094 C48.2957608 -0.12542572 49.17648254 -0.1346405 50.08389282 -0.14413452 C56.39649143 -0.10166294 62.22755615 0.74329705 67.25195312 4.92382812 C67.69796875 5.50261719 68.14398438 6.08140625 68.60351562 6.67773438 C69.29574219 7.54205078 69.29574219 7.54205078 70.00195312 8.42382812 C72.45999266 12.06391852 73.48402875 14.55278817 73.35351562 18.99023438 C73.33546875 19.78945312 73.31742187 20.58867188 73.29882812 21.41210938 C73.26402344 22.31703125 73.26402344 22.31703125 73.22851562 23.24023438 C74.09476562 23.26085937 74.96101563 23.28148437 75.85351562 23.30273438 C80.68210774 24.64400996 82.45257168 27.21338568 85.22851562 31.24023438 C99.90419381 57.4527458 104.00821336 89.60049698 109.66992188 118.70117188 C114.28586691 142.39536427 119.38351997 165.70119779 125.99951172 188.91845703 C140.21314214 238.80834223 140.21314214 238.80834223 140.79101562 263.86523438 C140.83174194 264.97499634 140.83174194 264.97499634 140.87329102 266.10717773 C140.82151455 272.99026166 137.63393525 277.83481475 132.85351562 282.61523438 C128.42638486 285.35583913 124.40053245 286.24023438 119.22851562 286.24023438 C119.14601563 286.79710937 119.06351562 287.35398437 118.97851562 287.92773438 C117.50789285 292.4621546 114.79079872 295.15069919 110.66601562 297.36523438 C99.95367703 302.08044556 89.65054564 302.7754394 78.11300659 303.14801025 C73.38301676 303.30608983 68.65554603 303.51995813 63.92773438 303.73242188 C62.99169876 303.7741452 62.05566315 303.81586853 61.09126282 303.8588562 C-0.55376386 306.68443646 -61.83007141 322.01075446 -121.50366211 336.84570312 C-171.8108479 349.32984955 -171.8108479 349.32984955 -182.06054688 344.45117188 C-187.67670714 340.47626393 -190.90795492 335.80482215 -192.77148438 329.24023438 C-193.29976801 326.02933165 -193.63137528 322.80630005 -193.95507812 319.5690918 C-194.05511642 318.61203402 -194.15515472 317.65497623 -194.25822449 316.6689167 C-194.58475401 313.49956818 -194.89827209 310.3291396 -195.20898438 307.15820312 C-195.37330963 305.50521745 -195.37330963 305.50521745 -195.54095459 303.81883812 C-197.853955 280.35848616 -199.23938223 256.87671642 -200.42651367 233.33666992 C-201.01671456 221.65291561 -201.66075383 209.97201918 -202.30273438 198.29101562 C-202.36543015 197.14595676 -202.42812592 196.0008979 -202.49272156 194.82114029 C-205.21280849 145.27190573 -207.97871113 95.04812787 -216.80715942 46.15422058 C-218.23070424 38.13627654 -219.82686407 29.06836462 -215.77148438 21.61523438 C-212.83167389 17.77783469 -209.4450566 15.48597749 -204.77148438 14.24023438 C-202.25724848 14.11018769 -199.86786061 14.16319495 -197.36132812 14.39257812 C-194.58692387 14.38153096 -194.58692387 14.38153096 -191.58642578 12.82666016 C-187.84182765 11.17398021 -184.18580487 10.39914155 -180.14257812 9.70507812 C-179.43102066 9.58089005 -178.7194632 9.45670197 -177.98634338 9.32875061 C-175.72852838 8.937003 -173.46885714 8.55740851 -171.20898438 8.17773438 C-169.72122488 7.92001609 -168.23359338 7.66155775 -166.74609375 7.40234375 C-162.42552172 6.65454327 -158.09991509 5.94094931 -153.77148438 5.24023438 C-151.98532715 4.94765747 -151.98532715 4.94765747 -150.16308594 4.64916992 C-126.08849212 0.9359757 -101.1952744 1.14490797 -76.88867188 0.69726562 C-75.23355717 0.66599201 -75.23355717 0.66599201 -73.5450058 0.63408661 C-49.03090319 0.17832318 -24.51800729 0.01984046 0 0 Z M50.28320312 39.36132812 C48.52231058 39.41060142 46.76140476 39.45940198 45.00048828 39.5078125 C44.04619934 39.53560791 43.0919104 39.56340332 42.10870361 39.59204102 C20.47320847 40.20898021 -1.14634518 40.2959014 -22.78792191 40.24546432 C-57.81175822 40.16780138 -92.70723115 40.75711738 -127.69354248 42.44030762 C-144.73168659 43.25482445 -161.71639974 43.48369117 -178.77148438 43.24023438 C-178.61067383 43.92496826 -178.44986328 44.60970215 -178.28417969 45.31518555 C-173.58609583 65.6841604 -170.90033557 85.91857418 -169.00396729 106.71746826 C-168.77484409 109.20377671 -168.53695585 111.68909153 -168.29638672 114.17431641 C-164.62447515 152.32808607 -162.74568816 190.61729935 -160.62600708 228.88092041 C-160.03361826 239.57076892 -159.43690506 250.26033351 -158.8159523 260.94856644 C-158.73345481 262.37176701 -158.65153583 263.79500127 -158.57027817 265.21827316 C-157.93058384 284.39860406 -157.93058384 284.39860406 -154.77148438 303.24023438 C-142.67441272 300.92916621 -130.71904759 298.32903247 -118.79858398 295.23620605 C-56.51736936 279.13576197 8.61855736 264.66278358 73.17407227 263.61791992 C82.52757142 263.43367545 91.41573098 262.57480154 100.22851562 259.24023438 C98.77773228 239.65465922 93.6037292 221.08216027 88.33227539 202.24389648 C82.21964921 180.38978132 76.83346629 158.46252831 72.22851562 136.24023438 C71.97376465 135.02094238 71.71901367 133.80165039 71.45654297 132.54541016 C66.94066404 110.37157556 64.86983115 87.78032221 62.46289062 65.30273438 C62.35271103 64.2807193 62.24253143 63.25870422 62.12901306 62.20571899 C61.44600523 55.72746622 60.94940312 49.26301677 60.59918213 42.75756836 C60.47686218 41.92684814 60.35454224 41.09612793 60.22851562 40.24023438 C57.07620502 38.66407907 53.7336408 39.24310001 50.28320312 39.36132812 Z " fill="#FFFFFF" transform="translate(304.771484375,104.759765625)"/>
<path d="M0 0 C6.03235396 5.19661001 7.96386729 13.09021614 9.96484375 20.51953125 C10.21367813 21.4175798 10.46251251 22.31562836 10.71888733 23.2408905 C11.50785018 26.09602351 12.28524299 28.95416096 13.0625 31.8125 C13.57934367 33.68705161 14.09691653 35.56140234 14.61523438 37.43554688 C15.88750021 42.04757969 17.14407894 46.66366076 18.39105225 51.28259277 C18.88192433 53.10002371 19.37448921 54.91699826 19.86871338 56.73352051 C20.57507674 59.3327349 21.27486238 61.93362989 21.97265625 64.53515625 C22.18357407 65.30857864 22.39449188 66.08200104 22.61180115 66.87886047 C24.95624063 75.69669097 25.28347487 83.63334737 21.125 92 C18.23582472 95.4974227 15.20915336 98.01028426 11.125 100 C9.805 100 8.485 100 7.125 100 C6.898125 100.70125 6.67125 101.4025 6.4375 102.125 C4.35775627 106.68062912 1.60025452 109.92054547 -2.4375 112.875 C-8.22439657 114.76889342 -14.31720175 115.20417787 -20.16015625 113.2265625 C-22.54100935 111.97160816 -24.67674395 110.555205 -26.875 109 C-27.92300781 108.27167969 -28.97101563 107.54335938 -30.05078125 106.79296875 C-33.05910827 104.67953726 -36.03432359 102.52299919 -39.00488281 100.35693359 C-40.89879045 98.98273795 -42.80270127 97.62374775 -44.7109375 96.26953125 C-45.33524658 95.82633545 -45.95955566 95.38313965 -46.6027832 94.92651367 C-47.7909917 94.08362086 -48.97960526 93.24129865 -50.16870117 92.3996582 C-51.74521763 91.27724576 -53.31040766 90.13897527 -54.875 89 C-55.75542969 88.36964844 -56.63585937 87.73929687 -57.54296875 87.08984375 C-60.29033829 84.62779567 -61.82548998 82.15034201 -63.625 78.9375 C-64.21796875 77.89464844 -64.8109375 76.85179687 -65.421875 75.77734375 C-68.47460051 69.94269903 -68.51250141 64.80857914 -66.875 58.5 C-61.9737646 43.59578872 -52.18132436 30.49455337 -43.57080078 17.56640625 C-42.13433843 15.39247993 -40.72656124 13.2057999 -39.33984375 11 C-38.67082031 9.948125 -38.00179688 8.89625 -37.3125 7.8125 C-36.77496094 6.95269531 -36.23742187 6.09289062 -35.68359375 5.20703125 C-28.504145 -3.55406712 -9.89404131 -5.59473304 0 0 Z " fill="#5EBD41" transform="translate(334.875,203)"/>
<path d="M0 0 C15.55549565 15.2563515 20.09656743 43.01411732 24.875 63.1875 C25.0699707 63.98510742 25.26494141 64.78271484 25.46582031 65.60449219 C28.13132991 76.59780806 30.79133225 89.72321894 25.2109375 100.19140625 C21.20956837 106.17006013 16.90767627 111.34218537 10 113.875 C-6.07623952 116.23915287 -21.67183166 104.38842146 -34.0625 95.25 C-37.02734375 93.03515625 -37.02734375 93.03515625 -39.125 91.1875 C-39.125 90.5275 -39.125 89.8675 -39.125 89.1875 C-39.70765625 88.919375 -40.2903125 88.65125 -40.890625 88.375 C-43.15286601 87.17269009 -44.93076318 85.84924087 -46.875 84.1875 C-47.48859375 83.671875 -48.1021875 83.15625 -48.734375 82.625 C-50.125 81.1875 -50.125 81.1875 -50.125 79.1875 C-50.72183594 78.92453125 -51.31867188 78.6615625 -51.93359375 78.390625 C-57.16520642 75.51836706 -61.14197847 69.69589315 -63.125 64.1875 C-63.82935382 59.37006767 -63.63958919 56.14570057 -61.3125 51.8125 C-59.125 49.1875 -59.125 49.1875 -57.5625 47.75 C-55.89453132 46.11656012 -55.89453132 46.11656012 -54.8828125 43.19140625 C-49.14427169 29.48472291 -37.60391885 7.59555659 -24.125 0.1875 C-15.96489109 -2.8954625 -7.80411009 -4.52638385 0 0 Z " fill="#5EBD41" transform="translate(226.125,216.8125)"/>
</svg>
