<?xml version="1.0" encoding="UTF-8"?>
<svg version="1.1" xmlns="http://www.w3.org/2000/svg" width="512" height="512">
<path d="M0 0 C5.31834289 3.85711999 8.10481681 8.77807831 9.40161133 15.1574707 C9.72985501 17.23722269 10.03419008 19.32087559 10.31567383 21.4074707 C10.47938477 22.4490332 10.6430957 23.4905957 10.81176758 24.5637207 C11.66401418 30.23581573 12.11981683 35.67489452 11.94067383 41.4074707 C12.8681543 41.28629883 13.79563477 41.16512695 14.7512207 41.0402832 C18.22467811 40.5889594 21.69866412 40.14222346 25.1730957 39.69848633 C26.67072471 39.50628416 28.16812722 39.31230779 29.6652832 39.11645508 C31.82941062 38.83367576 33.99429875 38.55749437 36.15942383 38.2824707 C38.10751953 38.03110352 38.10751953 38.03110352 40.0949707 37.7746582 C48.32427308 36.98892491 56.08258964 36.74276503 62.96020508 41.9309082 C67.72960099 46.69026329 69.10379959 51.52036795 70.23754883 58.0637207 C70.86002649 61.50943991 70.86002649 61.50943991 72.38647461 64.98974609 C74.19009603 69.72696126 74.87679682 74.4247854 75.51098633 79.43481445 C75.63754608 80.38199844 75.76410583 81.32918243 75.89450073 82.30506897 C76.15940705 84.30385436 76.41967348 86.30325961 76.67553711 88.30322266 C77.06073321 91.3064506 77.46234399 94.30712681 77.86645508 97.30786133 C78.12395603 99.26671575 78.38049547 101.22569685 78.63598633 103.18481445 C78.81099167 104.49203712 78.81099167 104.49203712 78.98953247 105.82566833 C81.13548378 122.81635878 81.06018929 139.79131225 80.98527336 156.88661194 C80.96662988 161.15425834 80.95728955 165.42189722 80.94935608 169.6895752 C80.92546869 181.81269988 80.88963955 193.93577349 80.84472656 206.05883789 C80.81989308 212.78398674 80.80270578 219.5091157 80.79316717 226.23430395 C80.78778961 229.76890865 80.77871761 233.30340678 80.75977898 236.83796692 C80.64486776 258.75416099 81.23869401 280.57206526 84.94067383 302.2199707 C85.10567383 303.26604492 85.27067383 304.31211914 85.44067383 305.38989258 C86.77784685 313.96341024 86.77784685 313.96341024 92.37817383 320.2199707 C96.63131954 323.77311952 98.5848179 327.25488786 99.21801758 332.86450195 C99.47385483 339.69023972 98.15687426 343.89966496 93.56567383 349.0949707 C86.34693902 355.45433232 79.54266688 355.61274955 70.31567383 355.9699707 C69.2324585 356.0131543 68.14924316 356.05633789 67.03320312 356.10083008 C58.34837469 356.40660399 49.67702725 356.44785545 40.98861694 356.4156189 C6.61588205 356.29033023 -27.30278876 358.47763782 -61.45385742 362.3371582 C-120.58729142 368.94560686 -120.58729142 368.94560686 -138.05932617 357.4074707 C-143.04286908 352.50800597 -144.31819604 348.05067238 -145.62182617 341.2824707 C-145.82670654 340.27168457 -146.03158691 339.26089844 -146.24267578 338.21948242 C-148.57101397 326.36727428 -150.3330352 314.45145986 -151.80352783 302.46502686 C-152.06706333 300.3452356 -152.34252394 298.22722006 -152.61938477 296.10913086 C-155.50577286 273.72195977 -156.41816909 251.53986225 -156.37182617 228.9699707 C-156.3693689 227.73995331 -156.36691162 226.50993591 -156.36437988 225.24264526 C-156.35146597 221.63208977 -156.32775422 218.02182763 -156.29760742 214.41137695 C-156.29003922 213.38513214 -156.28247101 212.35888733 -156.27467346 211.30154419 C-156.19464708 204.6711054 -155.96723455 198.05805155 -155.6843996 191.43353176 C-155.13668136 178.45154531 -154.95444062 165.5108784 -155.0452919 152.51856995 C-155.06790612 149.1364425 -155.08158989 145.75437541 -155.09298706 142.37219238 C-155.1260685 132.77954077 -155.16861405 123.18699265 -155.23071289 113.59448242 C-155.26844169 107.67064162 -155.29139532 101.74689533 -155.30501938 95.82295227 C-155.313026 93.58715634 -155.32656642 91.35137259 -155.34595108 89.11564636 C-155.37256241 85.99991097 -155.38033339 82.88463414 -155.3840332 79.76879883 C-155.39639008 78.86377121 -155.40874695 77.95874359 -155.42147827 77.02629089 C-155.39722664 69.24374978 -154.02634824 60.66223923 -149.05932617 54.4074707 C-144.7945382 50.83695054 -140.64587575 49.10577622 -135.05932617 49.4074707 C-128.31867197 51.14812491 -128.31867197 51.14812491 -126.05932617 53.4074707 C-123.80071052 53.50796317 -121.53892544 53.538288 -119.27807617 53.5402832 C-118.24680603 53.54171829 -118.24680603 53.54171829 -117.19470215 53.54318237 C-115.73193267 53.54386475 -114.26916019 53.54200648 -112.80639648 53.5378418 C-110.59636345 53.53255923 -108.38653978 53.53775056 -106.17651367 53.54418945 C-99.0751427 53.54720874 -92.10439254 53.4071085 -85.05932617 52.4074707 C-85.34807617 51.63145508 -85.63682617 50.85543945 -85.93432617 50.0559082 C-89.05738584 40.9686721 -91.58047081 31.0548347 -87.49682617 21.9074707 C-78.9205674 13.11130786 -70.55459338 10.36486295 -58.73510742 7.5246582 C-57.67067917 7.26492218 -56.60625092 7.00518616 -55.50956726 6.73757935 C-52.13142421 5.9145897 -48.75164143 5.09856244 -45.37182617 4.2824707 C-43.08982042 3.72691106 -40.80791827 3.17092567 -38.52612305 2.61450195 C-34.35068675 1.59887963 -30.17524253 0.58331498 -25.99804688 -0.42504883 C-24.74517632 -0.72791306 -24.74517632 -0.72791306 -23.46699524 -1.03689575 C-15.51441607 -2.87216448 -7.36083533 -4.44470896 0 0 Z M31.72143555 79.04663086 C30.1025795 79.25814789 30.1025795 79.25814789 28.45101929 79.47393799 C27.26940216 79.62989441 26.08778503 79.78585083 24.87036133 79.9465332 C22.3033631 80.28080872 19.73630293 80.61460875 17.16918945 80.94799805 C16.49464911 81.03574997 15.82010876 81.12350189 15.12512779 81.21391296 C-8.74369184 84.31729229 -32.62270024 87.24556447 -56.55932617 89.7824707 C-57.67889709 89.90325989 -58.79846802 90.02404907 -59.95196533 90.14849854 C-77.96219903 92.08271314 -95.98019973 93.34935905 -114.05932617 94.4074707 C-114.06963364 95.33945282 -114.0799411 96.27143494 -114.09056091 97.23165894 C-114.18957048 106.14158968 -114.29238925 115.05146996 -114.39866543 123.96131706 C-114.45314944 128.53872739 -114.50642438 133.11614423 -114.55664062 137.69360352 C-114.74955989 155.21050419 -114.94998361 172.71157328 -115.70742798 190.21488953 C-116.24341235 203.00416149 -116.34681284 215.7956263 -116.37182617 228.5949707 C-116.37444458 229.89675262 -116.37706299 231.19853455 -116.37976074 232.5397644 C-116.38450991 254.74026939 -115.15342529 276.43392507 -112.05932617 298.4074707 C-111.86502928 299.8185641 -111.67101874 301.22969695 -111.47729492 302.64086914 C-110.42570886 310.24386305 -109.29647807 317.83240156 -108.05932617 325.4074707 C-99.06798138 325.59505091 -90.25373044 325.02350572 -81.30932617 324.1574707 C-79.88935918 324.02443329 -78.46935481 323.89179442 -77.04931641 323.75952148 C-68.90948711 322.9953557 -60.77492968 322.18059715 -52.64135742 321.3527832 C-51.32695175 321.21948608 -51.32695175 321.21948608 -49.98599243 321.08349609 C-45.72036679 320.65054844 -41.45531472 320.21309816 -37.19116211 319.76586914 C-17.61580217 317.7368251 1.89398017 317.18332825 21.56567383 316.8449707 C23.94067941 316.80165605 26.31567949 316.75803827 28.69067383 316.71411133 C34.44061515 316.60841068 40.19061262 316.506423 45.94067383 316.4074707 C45.42619263 310.605762 44.9055445 304.80936367 44.22192383 299.0246582 C44.03049805 297.36563477 44.03049805 297.36563477 43.83520508 295.6730957 C43.5748748 293.43580183 43.31190977 291.19881275 43.04614258 288.9621582 C40.97182491 270.85902218 40.8116524 252.90939403 40.87221146 234.70864344 C40.88240701 231.21453097 40.88574801 227.72041202 40.88964844 224.22628784 C40.90157558 214.58896333 40.92326986 204.9516661 40.94587708 195.31436157 C40.97139933 184.43134041 40.99229122 173.54832968 41.00317383 162.6652832 C41.00396313 161.95789159 41.00475243 161.25049997 41.00556564 160.52167225 C41.03394954 133.14106496 40.63854041 105.77994165 39.94067383 78.4074707 C37.11376781 78.4074707 34.52122184 78.67746879 31.72143555 79.04663086 Z " fill="#FFFFFF" transform="translate(267.059326171875,61.592529296875)"/>
<path d="M0 0 C4.93441057 2.42353794 8.27831963 6.65013209 10.953125 11.3671875 C11.828125 14.8671875 11.828125 14.8671875 11.953125 17.3671875 C13.0875 17.3053125 14.221875 17.2434375 15.390625 17.1796875 C23.08854671 17.22048921 28.88269951 19.72878705 34.54296875 24.8671875 C37.22038146 27.7151833 37.953125 29.02215797 37.953125 32.9921875 C36.93755801 39.27023798 33.54619673 44.28750917 28.625 48.234375 C25.81297896 50.13022144 22.98610535 51.85069732 19.953125 53.3671875 C19.58122883 55.54248494 19.30624128 57.73465022 19.078125 59.9296875 C17.90776196 68.72974545 15.90689413 74.70390111 8.73046875 80.2265625 C5.89546698 82.04594825 4.36068912 82.56763245 0.953125 82.3671875 C-7.38762581 79.48683002 -12.69830695 74.92617253 -16.70703125 67.14453125 C-17.14917969 66.22800781 -17.59132812 65.31148438 -18.046875 64.3671875 C-19.89539063 64.70943359 -19.89539063 64.70943359 -21.78125 65.05859375 C-45.12938512 69.19441414 -45.12938512 69.19441414 -52.609375 64.4921875 C-53.8159375 63.4403125 -53.8159375 63.4403125 -55.046875 62.3671875 C-55.56507813 61.91601562 -56.08328125 61.46484375 -56.6171875 61 C-59.25868282 57.98321026 -59.65644469 54.26498347 -60.046875 50.3671875 C-59.50535707 45.80296495 -58.28920757 43.25395036 -54.984375 40.1796875 C-46.40989671 33.56109835 -35.16040118 30.85060639 -25.046875 27.3671875 C-25.09328125 26.61695313 -25.1396875 25.86671875 -25.1875 25.09375 C-25.47657009 16.89654828 -24.8693838 9.86425668 -19.38671875 3.4140625 C-13.69114686 -1.59149144 -7.16209417 -2.21423522 0 0 Z " fill="#5EBD41" transform="translate(228.046875,179.6328125)"/>
<path d="M0 0 C10.41704861 -0.33343754 20.34628689 1.07410433 28.3515625 8.19921875 C31.989595 12.61682965 32.47056304 17.63169332 32.3515625 23.19921875 C31.43275675 28.74137687 28.91669426 32.51791194 24.41845703 35.85180664 C16.22399108 41.19379313 6.89329491 40.63800259 -2.5234375 40.51171875 C-3.25432587 40.50611938 -3.98521423 40.50052002 -4.73825073 40.49475098 C-13.40871583 40.42777832 -22.07395519 40.26782646 -30.7109375 39.44921875 C-31.42169434 39.38774658 -32.13245117 39.32627441 -32.86474609 39.26293945 C-39.35301736 38.50105313 -45.27463168 36.12782511 -49.5859375 31.13671875 C-53.00846914 26.26220399 -53.18325567 21.9732742 -52.6484375 16.19921875 C-50.65383587 10.43703627 -46.9500024 6.85300809 -41.50390625 4.125 C-37.64510299 2.87392425 -33.86322425 2.51133126 -29.8359375 2.13671875 C-28.99716064 2.05437988 -28.15838379 1.97204102 -27.29418945 1.88720703 C-18.20094337 1.01921927 -9.11971003 0.49797132 0 0 Z " fill="#5EBD41" transform="translate(246.6484375,302.80078125)"/>
</svg>
