<?xml version="1.0" encoding="UTF-8"?>
<svg version="1.1" xmlns="http://www.w3.org/2000/svg" width="512" height="512">
<path d="M0 0 C2.70767047 1.93639464 4.97185301 3.7675369 6.5625 6.75 C6.5625 7.74 6.5625 8.73 6.5625 9.75 C13.88305709 9.37779793 21.20353237 9.00402655 28.52391243 8.62835789 C31.92459563 8.45388814 35.3253028 8.27991992 38.72607422 8.10717773 C42.65338989 7.9074226 46.58060771 7.7058282 50.5078125 7.50390625 C51.7042337 7.4434462 52.90065491 7.38298615 54.1333313 7.32069397 C61.23567713 6.95345881 68.32632416 6.50019848 75.41809082 5.96551514 C80.25832746 5.63376943 85.08712233 5.48984221 89.9375 5.4375 C90.85660156 5.40849609 91.77570313 5.37949219 92.72265625 5.34960938 C98.8740869 5.29257043 103.42974646 6.25259098 108.5625 9.75 C112.36216778 13.54966778 114.45360431 17.44078098 114.6328125 22.88671875 C114.30290301 28.60191555 112.85520546 32.85596913 108.5625 36.75 C105.01143624 39.00749764 101.35698677 40.93582331 97.5625 42.75 C98.01689453 43.50216797 98.01689453 43.50216797 98.48046875 44.26953125 C103.26709534 52.91491528 105.36791259 62.19504784 107.5625 71.75 C107.83924561 72.93070068 107.83924561 72.93070068 108.12158203 74.13525391 C114.70172187 102.88384308 115.47623636 133.3640791 116.12011719 162.75195312 C116.1874172 165.74631607 116.26542188 168.74028278 116.34375 171.734375 C117.49051614 219.79112845 117.49051614 219.79112845 102.25 236.5625 C99.69816085 239.01598133 98.40396877 239.80466594 94.9375 241 C90.52525938 240.67316736 89.47913268 238.91549212 86.5625 235.75 C86.13654541 236.10078613 85.71059082 236.45157227 85.27172852 236.81298828 C84.66772217 237.31040527 84.06371582 237.80782227 83.44140625 238.3203125 C82.76158691 238.88016846 82.08176758 239.44002441 81.38134766 240.0168457 C79.85890545 241.27061194 78.33644407 242.5243549 76.81396484 243.77807617 C72.8872542 247.01167204 68.9608181 250.24559967 65.03515625 253.48046875 C60.87887757 256.9051942 56.72107724 260.32806619 52.5625 263.75 C51.57765625 264.56082031 50.5928125 265.37164062 49.578125 266.20703125 C47.82436562 267.64687808 46.06656984 269.08182314 44.3046875 270.51171875 C42.35783532 272.10081604 40.42708458 273.70973094 38.5078125 275.33203125 C19.74688925 290.99941255 -6.72663233 312.4649929 -31.0625 317.5 C-35.31010017 319.07318525 -37.04381513 321.34626594 -39.76171875 324.875 C-42.52712518 327.96916104 -44.79185303 328.66782675 -48.875 329.1875 C-52.37869702 329.50911792 -52.37869702 329.50911792 -54.79589844 331.1862793 C-65.99056376 337.81306593 -82.58388831 336.75042848 -95.1875 337.4375 C-96.28921539 337.50037201 -97.39093079 337.56324402 -98.52603149 337.62802124 C-141.35652371 340.05519747 -185.36877304 341.58735561 -225.14453125 323.203125 C-229.14290255 321.43871916 -231.9628959 320.78827452 -236.3125 320.4375 C-243.32139175 319.55653024 -247.35399552 315.03265692 -251.921875 310.04296875 C-255.46489905 304.68277514 -255.84434346 298.31777608 -256.33544922 292.07226562 C-256.40734467 291.22990356 -256.47924011 290.3875415 -256.55331421 289.51965332 C-256.78955308 286.73236369 -257.01587056 283.94436135 -257.2421875 281.15625 C-257.40848999 279.17129411 -257.57542415 277.18639106 -257.74295044 275.20153809 C-258.18484858 269.9462183 -258.61842329 264.69024419 -259.0501709 259.43408203 C-259.47535003 254.27336896 -259.90772036 249.11326047 -260.33984375 243.953125 C-260.85580978 237.78976556 -261.37033962 231.62630283 -261.87796021 225.46224976 C-262.74482424 214.94921245 -263.63617183 204.43911301 -264.57373047 193.93212891 C-264.85088105 190.79457605 -265.12749573 187.65697637 -265.403965 184.5193634 C-265.57848709 182.55757712 -265.75564901 180.59602332 -265.93584824 178.63475037 C-271.82226399 114.54373396 -271.82226399 114.54373396 -261.4375 99.75 C-259.21324826 97.19865241 -257.7519328 95.8589309 -254.31640625 95.57421875 C-253.51074219 95.54972656 -252.70507812 95.52523437 -251.875 95.5 C-245.43009017 95.03694929 -241.35884879 91.91618848 -236.28369141 88.125 C-234.20968356 86.58032767 -232.11190168 85.07137797 -230.01171875 83.5625 C-220.81438824 76.9137478 -211.90260012 69.98314631 -203.140625 62.7734375 C-199.23209881 59.56358568 -195.23821864 56.47613791 -191.21801758 53.40820312 C-187.36954368 50.47085203 -183.55251949 47.49658008 -179.75 44.5 C-178.57430327 43.57541335 -177.39851976 42.65093704 -176.22265625 41.7265625 C-174.26590177 40.18826278 -172.30971234 38.64926797 -170.35498047 37.10839844 C-159.88442128 28.86286251 -149.2533438 20.9019795 -138.40429688 13.16162109 C-136.62926854 11.88763725 -134.86604052 10.59991427 -133.109375 9.30078125 C-130.56971699 7.42379357 -128.01567324 5.57358595 -125.4375 3.75 C-124.82132813 3.30914062 -124.20515625 2.86828125 -123.5703125 2.4140625 C-118.16654708 -1.09713991 -112.24866829 -1.93250716 -105.97265625 -0.80859375 C-102.09980752 0.31910763 -99.99410864 1.07748833 -97.35522461 4.26586914 C-93.43724049 7.60161413 -90.64631662 7.56527348 -85.6484375 7.67578125 C-84.79053619 7.7130986 -83.93263489 7.75041595 -83.04873657 7.78886414 C-80.30366469 7.90237117 -77.55873074 7.98251035 -74.8125 8.0625 C-73.02074839 8.13396911 -71.2290785 8.20751874 -69.4375 8.28320312 C-64.98962665 8.46190576 -60.54243107 8.58835734 -56.09210205 8.68692017 C-54.30962449 8.72927619 -52.52732438 8.77982745 -50.74530029 8.83822632 C-48.15839593 8.92200826 -45.57210017 8.9798042 -42.984375 9.03125 C-42.21209564 9.06064163 -41.43981628 9.09003326 -40.64413452 9.12031555 C-34.22451266 9.19654806 -30.62137677 6.9475391 -25.77734375 2.73046875 C-18.83989881 -3.14145877 -7.90255677 -4.68942929 0 0 Z M-104.3515625 37.35546875 C-105.47896851 38.20250366 -105.47896851 38.20250366 -106.62915039 39.06665039 C-107.43215576 39.68403076 -108.23516113 40.30141113 -109.0625 40.9375 C-110.78191348 42.23261909 -112.50198091 43.52687037 -114.22265625 44.8203125 C-115.53000732 45.8088623 -115.53000732 45.8088623 -116.86376953 46.81738281 C-120.70490816 49.70169825 -124.59897485 52.50999733 -128.5 55.3125 C-129.9922181 56.38797837 -131.48440557 57.46349926 -132.9765625 58.5390625 C-135.20653289 60.144446 -137.43676236 61.74946914 -139.66699219 63.35449219 C-141.90360144 64.96465509 -144.1395561 66.57571961 -146.375 68.1875 C-147.11427734 68.72052734 -147.85355469 69.25355469 -148.61523438 69.80273438 C-154.10470804 73.76867676 -159.55620319 77.78417893 -165 81.8125 C-174.821651 89.07518762 -184.67619978 96.35925225 -194.91796875 103.0234375 C-195.74941406 103.59320313 -196.58085937 104.16296875 -197.4375 104.75 C-197.4375 105.08 -197.4375 105.41 -197.4375 105.75 C-193.41366815 106.66205582 -189.48632378 107.02405459 -185.37109375 107.28515625 C-184.69635513 107.32813339 -184.02161652 107.37111053 -183.32643127 107.41539001 C-181.90026242 107.50526489 -180.47398372 107.59341136 -179.04760742 107.67993164 C-176.90571709 107.8106257 -174.76440984 107.94885391 -172.62304688 108.08789062 C-168.56265137 108.34601976 -164.50131474 108.55274723 -160.4375 108.75 C-159.26493652 108.82138184 -158.09237305 108.89276367 -156.88427734 108.96630859 C-150.99396211 109.33469602 -150.99396211 109.33469602 -145.859375 106.90625 C-145.30765625 106.0296875 -144.7559375 105.153125 -144.1875 104.25 C-140.3720419 98.88060988 -136.24425523 94.26384819 -131.5625 89.625 C-130.86286133 88.93108154 -130.16322266 88.23716309 -129.44238281 87.5222168 C-124.04112892 82.22755 -118.39708439 77.4066793 -112.4375 72.75 C-110.51526499 71.1926603 -108.60056249 69.62631902 -106.68579102 68.05981445 C-98.68441614 61.51823312 -90.5887686 55.10334318 -82.4375 48.75 C-81.49003906 48.01136719 -80.54257813 47.27273437 -79.56640625 46.51171875 C-77.52495497 44.92250785 -75.48225537 43.33495589 -73.4375 41.75 C-76.20385878 39.90576082 -77.82500924 39.24518174 -80.96484375 38.4609375 C-81.83947266 38.24179688 -82.71410156 38.02265625 -83.61523438 37.796875 C-84.52595703 37.57515625 -85.43667969 37.3534375 -86.375 37.125 C-87.28185547 36.89554688 -88.18871094 36.66609375 -89.12304688 36.4296875 C-97.08977486 34.24137792 -97.08977486 34.24137792 -104.3515625 37.35546875 Z M-27.4375 54.75 C-28.36820312 55.50667969 -29.29890625 56.26335937 -30.2578125 57.04296875 C-31.39863281 57.98076172 -31.39863281 57.98076172 -32.5625 58.9375 C-33.48160156 59.6903125 -34.40070313 60.443125 -35.34765625 61.21875 C-36.96366945 62.54261417 -38.57961236 63.86656451 -40.19482422 65.19140625 C-54.79087975 77.1527533 -69.62580822 88.74357716 -84.85205078 99.89306641 C-93.35210064 106.06052098 -93.35210064 106.06052098 -101.4375 112.75 C-101.4375 113.08 -101.4375 113.41 -101.4375 113.75 C-100.27686035 113.89248169 -100.27686035 113.89248169 -99.09277344 114.0378418 C-84.5952673 115.84734534 -70.39962535 117.83376657 -56.28125 121.69921875 C-55.0128125 122.04597656 -53.744375 122.39273438 -52.4375 122.75 C-51.56351563 123.07097656 -50.68953125 123.39195312 -49.7890625 123.72265625 C-46.61699906 123.75954071 -45.26794879 122.35299497 -43.03540039 120.23071289 C-42.1825647 119.37401001 -42.1825647 119.37401001 -41.3125 118.5 C-40.38522095 117.60365845 -40.38522095 117.60365845 -39.43920898 116.68920898 C-37.08444135 114.3964745 -34.76017362 112.07525581 -32.4375 109.75 C-31.36777381 108.68170522 -30.29794323 107.61351496 -29.22802734 106.54541016 C-22.09088189 99.41614295 -22.09088189 99.41614295 -14.98193359 92.25878906 C-9.84769415 87.07827127 -4.72461398 81.98628132 0.83422852 77.25561523 C3.7263499 74.73609093 6.38341864 71.99198225 9.0625 69.25 C13.16867883 65.09173934 17.32482156 61.09466961 21.78125 57.30859375 C24.86262695 54.61238892 27.70377981 51.67825662 30.5625 48.75 C31.2225 48.09 31.8825 47.43 32.5625 46.75 C25.6253523 46.54603086 18.6889859 46.40659496 11.74951172 46.31054688 C9.39244696 46.27048162 7.03557895 46.21601152 4.67919922 46.14648438 C1.27782532 46.04868589 -2.12090714 46.00390276 -5.5234375 45.96875 C-7.08655167 45.90681458 -7.08655167 45.90681458 -8.6812439 45.84362793 C-17.15969042 45.83850629 -21.41920476 49.01909678 -27.4375 54.75 Z M71.78515625 63.40234375 C71.07230469 64.15644531 70.35945313 64.91054687 69.625 65.6875 C65.37851229 70.04339802 60.86126874 73.83491921 56.1171875 77.6328125 C53.95918409 79.42124958 52.00347769 81.23472651 50.0625 83.25 C45.61218003 87.86078823 40.54576671 91.73712051 35.5625 95.75 C33.16114428 97.69928702 30.85065489 99.66523666 28.5625 101.75 C28.5625 102.41 28.5625 103.07 28.5625 103.75 C28.01722656 103.97558594 27.47195313 104.20117188 26.91015625 104.43359375 C23.86436587 106.14146623 21.50951066 108.4207245 19 110.8125 C14.25549459 115.24811834 9.38597807 119.44577403 4.3203125 123.515625 C1.48151545 125.81561354 -1.28644179 128.18734393 -4.0625 130.5625 C-10.35297466 135.82932787 -17.0118704 140.51047596 -23.75 145.18359375 C-24.71836792 145.86941528 -24.71836792 145.86941528 -25.70629883 146.5690918 C-27.4375 147.75 -27.4375 147.75 -29.94921875 149.109375 C-31.81062071 150.81666751 -31.81062071 150.81666751 -31.64453125 154.26953125 C-31.53411339 155.70230272 -31.40169484 157.13350915 -31.25 158.5625 C-31.16395508 159.5824707 -31.16395508 159.5824707 -31.07617188 160.62304688 C-30.95292966 162.0794253 -30.82304298 163.53525377 -30.68717957 164.99050903 C-29.76716797 175.15859657 -29.28746202 185.24791812 -29.3046875 195.45703125 C-29.30270859 197.36097153 -29.30270859 197.36097153 -29.3006897 199.30337524 C-29.29802525 202.69303512 -29.30239759 206.08264815 -29.30892944 209.47230148 C-29.31251908 211.57366828 -29.31412268 213.67502821 -29.31518555 215.77639771 C-29.3298471 239.11099883 -29.6628912 262.42727068 -30.4375 285.75 C-27.04150628 282.9945413 -23.90936499 280.37003667 -21.109375 276.99609375 C-17.17400276 272.39006669 -12.97231748 268.09275722 -8.6875 263.8125 C-7.89182617 263.01763184 -7.09615234 262.22276367 -6.27636719 261.40380859 C-1.42240711 256.60018442 3.47439122 252.09404358 8.85546875 247.88671875 C12.19751155 245.24877154 15.40645644 242.47369548 18.625 239.6875 C23.39397281 235.57565139 28.22058387 231.56307548 33.16015625 227.65625 C36.62221853 224.90911765 40.03239137 222.09993 43.44921875 219.296875 C46.43442686 216.8507851 49.4323919 214.42058207 52.43041992 211.99023438 C59.07047101 206.607383 65.67075741 201.18428237 72.20703125 195.67578125 C74.5625 193.75 74.5625 193.75 77.5625 191.75 C78.01766699 188.6687331 78.01766699 188.6687331 77.93481445 184.97265625 C77.9384198 184.27148682 77.94202515 183.57031738 77.94573975 182.84790039 C77.95379301 180.5025338 77.94001321 178.15782965 77.92578125 175.8125 C77.92593923 174.15616817 77.92719646 172.49983611 77.92948914 170.84350586 C77.93104029 166.39782364 77.91220892 161.95244595 77.88830566 157.50683594 C77.87505339 154.76106105 77.86756683 152.01533186 77.86206055 149.26953125 C77.80051149 120.06063367 77.17537071 90.91893832 75.5625 61.75 C73.40216977 61.52303895 73.40216977 61.52303895 71.78515625 63.40234375 Z M-231.4375 131.75 C-231.36134964 132.29945282 -231.28519928 132.84890564 -231.20674133 133.41500854 C-228.94651682 149.86750005 -227.19748994 166.34401988 -225.625 182.875 C-225.43405819 184.86014987 -225.24311497 186.84529961 -225.05206013 188.83043861 C-222.72773624 213.0209659 -220.60662926 237.22930184 -218.54292107 261.4433136 C-218.29885617 264.30657018 -218.05388791 267.16974931 -217.80900574 270.0329361 C-217.64216127 271.99082069 -217.47723719 273.94886864 -217.31237793 275.90692139 C-216.80331915 281.87469564 -216.23996805 287.81422544 -215.4375 293.75 C-211.48082741 294.57072694 -207.52190137 295.38004905 -203.5625 296.1875 C-202.45390625 296.41759766 -201.3453125 296.64769531 -200.203125 296.88476562 C-187.40191071 299.48265911 -174.96600467 300.02134683 -161.9375 300.0625 C-160.57183899 300.06842163 -160.57183899 300.06842163 -159.17858887 300.07446289 C-129.5606806 300.13278832 -99.97065086 297.77973618 -70.4375 295.75 C-69.76178969 287.09007302 -69.27403238 278.46074632 -69.078125 269.77734375 C-68.27589453 239.64780239 -66.3966971 209.83818986 -63.24978638 179.86323547 C-62.45096278 172.16725309 -61.85847747 164.47590215 -61.4375 156.75 C-95.75427737 150.39355998 -95.75427737 150.39355998 -130.4375 147.75 C-130.45208252 148.37753174 -130.46666504 149.00506348 -130.48168945 149.65161133 C-130.7643644 160.61800105 -131.12671797 171.5213498 -132.8125 182.375 C-132.92634033 183.13659424 -133.04018066 183.89818848 -133.1574707 184.68286133 C-134.07048192 190.09332075 -135.37946753 194.92717124 -139.625 198.6875 C-143.49646018 200.15005162 -146.51665756 200.06245042 -150.4375 198.75 C-162.28871421 188.54478776 -162.95123827 164.49652129 -164.0625 150.3125 C-164.19189133 148.4586346 -164.31865731 146.6045715 -164.4375 144.75 C-168.74562931 142.75775547 -173.05959919 142.06143653 -177.71875 141.41796875 C-179.37350159 141.17692304 -181.02820356 140.93553655 -182.68286133 140.69384766 C-183.97228134 140.50861542 -183.97228134 140.50861542 -185.28775024 140.31964111 C-199.02739304 138.33813989 -212.57831992 136.16697448 -226.01953125 132.6328125 C-229.17188564 131.6666404 -229.17188564 131.6666404 -231.4375 131.75 Z " fill="#FEFEFE" transform="translate(329.4375,64.25)"/>
<path d="M0 0 C5.62748726 -0.32598249 9.44911938 0.34986157 14.0546875 3.6875 C18.30022126 7.54174033 19.96267266 11.31624597 20.3125 17.0390625 C19.9349421 25.32016581 15.76927085 31.96910218 9.7890625 37.48828125 C-1.63426966 47.2265625 -1.63426966 47.2265625 -4.25 47.2265625 C-4.58 48.2165625 -4.91 49.2065625 -5.25 50.2265625 C-7.1484375 51.953125 -7.1484375 51.953125 -9.625 53.8515625 C-10.53765625 54.56183594 -11.4503125 55.27210937 -12.390625 56.00390625 C-13.33421875 56.73738281 -14.2778125 57.47085938 -15.25 58.2265625 C-16.96312736 59.61650786 -18.67139597 61.012461 -20.375 62.4140625 C-21.29410156 63.166875 -22.21320313 63.9196875 -23.16015625 64.6953125 C-24.77616945 66.01917667 -26.39211236 67.34312701 -28.00732422 68.66796875 C-46.61478928 83.91663281 -65.71747283 98.41210313 -85.1875 112.5390625 C-86.87590136 113.76699076 -88.56340409 114.99615559 -90.25 116.2265625 C-91.19746094 116.9175 -92.14492187 117.6084375 -93.12109375 118.3203125 C-99.79120354 123.24699958 -106.15570046 128.43887148 -112.4375 133.84375 C-114.66061986 135.72722654 -116.8936787 137.51596387 -119.25 139.2265625 C-119.09015625 140.28230469 -118.9303125 141.33804688 -118.765625 142.42578125 C-117.04309658 156.33733609 -117.37679296 171.20598402 -119.5625 185.0390625 C-119.68012695 185.78969971 -119.79775391 186.54033691 -119.91894531 187.3137207 C-120.96743953 193.13474071 -122.51373428 197.65180987 -126.9375 201.6640625 C-130.56632563 203.3757727 -132.49086402 203.70895013 -136.36328125 202.94921875 C-140.6456576 201.30897108 -142.44212493 197.88880905 -144.3359375 193.9921875 C-148.96117558 183.07245249 -150.98479263 171.97150643 -152.25 160.2265625 C-152.38664063 158.999375 -152.52328125 157.7721875 -152.6640625 156.5078125 C-154.19309762 140.15069265 -154.19309762 140.15069265 -149.375 133.7265625 C-148.67375 132.9015625 -147.9725 132.0765625 -147.25 131.2265625 C-146.64916226 129.76254942 -146.09184568 128.28041539 -145.5625 126.7890625 C-140.81472217 114.40435522 -132.41948117 104.56225783 -123.25 95.2265625 C-122.25629261 94.19422003 -121.26280549 93.16166549 -120.26953125 92.12890625 C-113.97068138 85.64416524 -107.34365813 79.84123399 -100.25 74.2265625 C-98.32663388 72.66476642 -96.40865468 71.09648478 -94.49047852 69.52832031 C-84.41579098 61.29988007 -74.21205958 53.24739767 -63.875 45.3515625 C-56.90548071 40.01842072 -50.11344673 34.47241747 -43.3203125 28.91748047 C-39.19501758 25.5481653 -35.05716628 22.19424079 -30.91894531 18.84082031 C-27.94591113 16.42901464 -24.98073606 14.01015595 -22.046875 11.55078125 C-15.03300019 5.69630378 -9.30221272 0.93668114 0 0 Z " fill="#5EBD41" transform="translate(317.25,61.7734375)"/>
<path d="M0 0 C4.77127248 2.75754151 8.32069638 6.98552665 10.0546875 12.1875 C10.55832802 21.42090944 9.65456943 30.61919487 4.6640625 38.56640625 C-0.34816597 43.61513153 -6.10484987 43.59877127 -12.77734375 43.64648438 C-13.98777344 43.63939453 -15.19820312 43.63230469 -16.4453125 43.625 C-17.65574219 43.64498047 -18.86617187 43.66496094 -20.11328125 43.68554688 C-31.21533793 43.67944013 -31.21533793 43.67944013 -35.9453125 39.1875 C-36.71875 38.50300781 -37.4921875 37.81851563 -38.2890625 37.11328125 C-40.82244269 32.63804125 -40.52579565 28.42867097 -40.4453125 23.375 C-40.46078125 22.41529297 -40.47625 21.45558594 -40.4921875 20.46679688 C-40.458012 14.20840881 -39.53713167 9.39631822 -35.9453125 4.1875 C-27.2194361 -4.31463598 -11.0050293 -3.96028736 0 0 Z " fill="#5EBD41" transform="translate(230.9453125,309.8125)"/>
</svg>
