<?xml version="1.0" encoding="UTF-8"?>
<svg version="1.1" xmlns="http://www.w3.org/2000/svg" width="512" height="512">
<path d="M0 0 C1.15860031 0.21662292 2.31720062 0.43324585 3.51091003 0.65643311 C17.14951791 3.30241206 30.49769503 6.95482536 43.875 10.67578125 C45.83421735 11.2161428 47.79380476 11.75514842 49.7533989 12.29414177 C57.69673095 14.47991 65.63082726 16.69810838 73.5625 18.92578125 C75.30159243 19.41179323 77.04068718 19.89779692 78.77978516 20.38378906 C111.97949438 29.69950978 141.8388229 41.85043016 168.35546875 64.11328125 C170.63085233 66.04313189 170.63085233 66.04313189 173.5625 67.92578125 C173.5625 68.58578125 173.5625 69.24578125 173.5625 69.92578125 C174.14902344 70.18875 174.73554688 70.45171875 175.33984375 70.72265625 C188.30873159 77.74272207 198.1862242 95.56479661 205.5625 107.92578125 C205.90909668 108.49844727 206.25569336 109.07111328 206.61279297 109.66113281 C224.38347235 139.42639476 227.78667702 175.73301082 227.8125 209.67578125 C227.81317474 210.48192871 227.81384949 211.28807617 227.81454468 212.11865234 C227.73986838 268.72188966 207.00028945 319.94141182 167.5625 360.92578125 C167.09263672 361.42142578 166.62277344 361.91707031 166.13867188 362.42773438 C128.50120171 401.98793609 68.46792402 436.59649527 13.04020691 438.15429688 C-35.56545053 439.23479082 -84.27141352 431.71543782 -123.4375 400.92578125 C-123.97246094 400.50651367 -124.50742188 400.08724609 -125.05859375 399.65527344 C-134.9809685 391.7375991 -143.88866722 382.67963783 -152.875 373.73828125 C-153.80570816 372.81560959 -153.80570816 372.81560959 -154.75521851 371.8742981 C-156.52898777 370.11215876 -158.29508761 368.34271657 -160.05859375 366.5703125 C-160.8730899 365.76173798 -160.8730899 365.76173798 -161.70404053 364.93682861 C-165.4375 361.15635939 -165.4375 361.15635939 -165.4375 358.92578125 C-166.0975 358.92578125 -166.7575 358.92578125 -167.4375 358.92578125 C-197.488368 325.95992605 -209.59565236 279.87978298 -216.4375 236.92578125 C-216.55077637 236.22614258 -216.66405273 235.52650391 -216.78076172 234.80566406 C-224.15186891 187.92402495 -216.22343 140.10157638 -189.1875 100.55078125 C-184.55851697 94.20246167 -179.39528945 88.42483847 -174.015625 82.71484375 C-171.41065145 79.96385085 -171.41065145 79.96385085 -169.109375 77.01171875 C-157.81612563 63.3207848 -140.88389095 52.38717215 -125.4375 43.92578125 C-124.61185547 43.46461914 -123.78621094 43.00345703 -122.93554688 42.52832031 C-110.17803465 35.4392761 -97.31607422 29.64763237 -83.5625 24.765625 C-81.85412561 24.15245812 -80.14578828 23.53918799 -78.4375 22.92578125 C-77.73874756 22.68649902 -77.03999512 22.4472168 -76.32006836 22.20068359 C-71.93558547 20.56320992 -70.19562738 18.75907788 -68 14.67578125 C-63.6385457 7.29936189 -57.98813918 1.1817617 -49.4375 -1.07421875 C-33.26272889 -4.92206316 -16.14933188 -3.02818472 0 0 Z M-1.4375 49.92578125 C-0.8105991 53.40895319 0.07919537 56.62994996 1.26953125 59.9609375 C5.34886373 71.62368189 8.72640188 83.02482654 10.87109375 95.19921875 C11.34798262 98.72720222 11.34798262 98.72720222 12.5625 100.92578125 C26.49405057 101.7614105 40.35789829 102.05456498 54.3125 101.98828125 C56.19661336 101.98324525 58.08072807 101.97868614 59.96484375 101.97460938 C64.49743003 101.96379521 69.02994934 101.9466523 73.5625 101.92578125 C71.17033948 95.69336304 68.59492856 89.68323121 65.4375 83.80078125 C64.86696899 82.72715332 64.86696899 82.72715332 64.28491211 81.63183594 C61.05963679 75.65391546 57.53340083 69.88839004 53.83740234 64.19091797 C52.12387444 61.5330458 50.63208959 59.13749873 49.640625 56.12109375 C48.70306282 53.66880343 48.70306282 53.66880343 45.91796875 52.52734375 C44.87253906 52.20507812 43.82710938 51.8828125 42.75 51.55078125 C41.19345703 51.04417969 41.19345703 51.04417969 39.60546875 50.52734375 C36.47008862 49.90751251 34.58924647 49.97053148 31.5625 50.92578125 C31.088125 51.42078125 30.61375 51.91578125 30.125 52.42578125 C27.72856832 54.72635566 25.86472196 54.68379204 22.5625 54.92578125 C19.4883715 54.34624722 16.54295888 53.43012593 13.5625 52.48828125 C8.43060229 50.89197313 4.01272275 49.56767367 -1.4375 49.92578125 Z M-35.375 52.30078125 C-37.00211914 52.63335937 -37.00211914 52.63335937 -38.66210938 52.97265625 C-39.71076172 53.19179687 -40.75941406 53.4109375 -41.83984375 53.63671875 C-42.79366943 53.83571777 -43.74749512 54.0347168 -44.73022461 54.23974609 C-47.45224809 54.92951848 -49.90622605 55.70722486 -52.4375 56.92578125 C-53.85193697 59.44642029 -53.85193697 59.44642029 -54.75 62.55078125 C-56.62896808 67.920955 -58.81955535 72.87732267 -61.4375 77.92578125 C-65.86247094 86.55602902 -70.07119631 95.23221612 -71.4375 104.92578125 C-54.40630632 104.31217937 -37.42991374 103.21813022 -20.4375 101.92578125 C-19.80396089 84.58601788 -19.26337737 67.28000354 -19.4375 49.92578125 C-24.93057657 49.92578125 -30.01457409 51.17093423 -35.375 52.30078125 Z M94.5625 67.92578125 C96.25139676 71.33240958 97.99764909 74.70765301 99.75 78.08203125 C100.05317139 78.66617798 100.35634277 79.25032471 100.66870117 79.85217285 C101.63301802 81.71018927 102.59771171 83.56800959 103.5625 85.42578125 C104.83367394 87.87352129 106.10445631 90.32146402 107.375 92.76953125 C107.93832031 93.85427734 108.50164062 94.93902344 109.08203125 96.05664062 C110.5625 98.92578125 110.5625 98.92578125 111.4675293 101.25390625 C112.44594545 103.13170764 112.44594545 103.13170764 114.65942383 103.59179688 C115.951427 103.71071289 115.951427 103.71071289 117.26953125 103.83203125 C118.23955078 103.93410889 119.20957031 104.03618652 120.20898438 104.14135742 C121.25376953 104.23521729 122.29855469 104.32907715 123.375 104.42578125 C131.85484188 105.3226876 140.19547476 106.45924128 148.5625 108.11328125 C149.4697583 108.29246094 150.3770166 108.47164062 151.31176758 108.65625 C153.39662041 109.07309844 155.4797828 109.49839032 157.5625 109.92578125 C143.7659885 93.72714761 128.07204934 81.54146334 108.5625 72.92578125 C107.3765625 72.39984375 106.190625 71.87390625 104.96875 71.33203125 C99.93751696 68.90852769 99.93751696 68.90852769 94.5625 67.92578125 Z M-144.25 108.48828125 C-144.77215088 109.00108643 -145.29430176 109.5138916 -145.83227539 110.04223633 C-148.60681653 112.51876313 -148.60681653 112.51876313 -149.4375 115.92578125 C-142.51349105 115.23839256 -135.72069699 114.16149895 -128.875 112.92578125 C-126.89486663 112.56974424 -124.91440242 112.21554185 -122.93359375 111.86328125 C-121.99757324 111.693125 -121.06155273 111.52296875 -120.09716797 111.34765625 C-117.68954466 110.96576043 -115.33986255 110.77315226 -112.91015625 110.61328125 C-109.37647169 110.27864938 -109.37647169 110.27864938 -107.609375 107.85546875 C-106.18274825 104.28890188 -104.88769834 100.69817488 -103.6875 97.05078125 C-100.85488511 88.7052375 -97.32471242 80.82671301 -93.4375 72.92578125 C-110.11271859 72.92578125 -132.98042536 97.3600601 -144.25 108.48828125 Z M17.5625 138.92578125 C18.04509145 150.19285111 19.10568608 161.26372076 20.71923828 172.42431641 C21.06917009 174.84695953 21.40833947 177.27094425 21.74609375 179.6953125 C21.96553892 181.24878377 22.18556789 182.80217271 22.40625 184.35546875 C22.50732056 185.07411102 22.60839111 185.7927533 22.71252441 186.53317261 C23.13699304 189.45203476 23.62721847 192.11993665 24.5625 194.92578125 C47.3325 194.26578125 70.1025 193.60578125 93.5625 192.92578125 C92.9345994 183.50727228 92.23577606 174.54316202 90.6875 165.30078125 C90.52636719 164.285 90.36523438 163.26921875 90.19921875 162.22265625 C88.97253987 154.71043676 87.34860663 147.32365197 85.5625 139.92578125 C51.56686172 139.03400417 51.56686172 139.03400417 17.5625 138.92578125 Z M-40.9765625 140.546875 C-42.02403656 140.61109146 -43.07151062 140.67530792 -44.15072632 140.74147034 C-46.34066272 140.87679061 -48.53049241 141.01384827 -50.72021484 141.15258789 C-54.08787405 141.3648808 -57.45598994 141.56845245 -60.82421875 141.77148438 C-62.95836598 141.90442492 -65.09248186 142.03786987 -67.2265625 142.171875 C-68.23683502 142.23233505 -69.24710754 142.2927951 -70.28799438 142.35508728 C-71.67611832 142.44506737 -71.67611832 142.44506737 -73.09228516 142.53686523 C-73.90960114 142.5879393 -74.72691711 142.63901337 -75.56900024 142.69163513 C-77.4494461 142.73316141 -77.4494461 142.73316141 -78.4375 143.92578125 C-78.68542104 146.53660409 -78.8674177 149.12073572 -79 151.73828125 C-79.0417334 152.54289795 -79.0834668 153.34751465 -79.12646484 154.17651367 C-79.89625137 170.45985526 -79.35203591 186.66010685 -78.4375 202.92578125 C-70.9962929 203.06402941 -63.71540379 202.51942059 -56.30859375 201.83203125 C-55.07834976 201.72105103 -53.84810577 201.6100708 -52.58058167 201.49572754 C-48.67836872 201.14284287 -44.77669002 200.78439689 -40.875 200.42578125 C-38.2181728 200.18407483 -35.56123257 199.9436383 -32.90429688 199.703125 C-26.41497529 199.11489479 -19.92608246 198.52210632 -13.4375 197.92578125 C-13.98629828 190.95129421 -14.53795289 183.97703723 -15.09155273 177.00292969 C-15.27937857 174.6325385 -15.46656101 172.26209624 -15.65307617 169.89160156 C-15.92195432 166.47577358 -16.19317902 163.06013861 -16.46484375 159.64453125 C-16.54717758 158.59213257 -16.62951141 157.53973389 -16.71434021 156.45544434 C-17.15686798 150.92196731 -17.69796961 145.42765716 -18.4375 139.92578125 C-25.97808641 139.84347953 -33.45161722 140.07194928 -40.9765625 140.546875 Z M170.64453125 143.41796875 C163.58161883 148.53294848 154.27842066 147.57033223 146.07568359 146.44921875 C142.61867784 145.83438052 139.1856566 145.15010771 135.75 144.42578125 C134.56857422 144.18730469 133.38714844 143.94882813 132.16992188 143.703125 C129.29829962 143.12182495 126.42951997 142.52929682 123.5625 141.92578125 C123.73378418 142.96806885 123.90506836 144.01035645 124.08154297 145.08422852 C124.7286555 149.0257556 125.37278853 152.96776518 126.01611328 156.90991211 C126.29266979 158.60209825 126.56998834 160.29416006 126.84814453 161.98608398 C128.59471362 172.61367318 130.21480014 183.23958589 131.5625 193.92578125 C132.85349609 193.90483398 134.14449219 193.88388672 135.47460938 193.86230469 C140.29025059 193.78959479 145.10584381 193.743869 149.921875 193.70605469 C152.00138525 193.68600966 154.08083963 193.65876612 156.16015625 193.62402344 C159.15899487 193.57519177 162.15708463 193.55274097 165.15625 193.53515625 C166.07740601 193.51451111 166.99856201 193.49386597 167.94763184 193.47259521 C175.83063825 193.46988975 181.50858979 195.88085607 187.5625 200.92578125 C187.02371687 179.78524114 185.30374009 158.4694061 176.5625 138.92578125 C174.34325409 138.92578125 172.19693272 141.96719176 170.64453125 143.41796875 Z M-125.19140625 147.9140625 C-125.96572495 148.0179277 -126.74004364 148.12179291 -127.53782654 148.22880554 C-129.18640539 148.45059879 -130.83484465 148.67343169 -132.4831543 148.8972168 C-134.93818317 149.22990429 -137.39384229 149.55757845 -139.84960938 149.88476562 C-150.75125065 151.35087542 -161.59825906 153.05459111 -172.4375 154.92578125 C-177.21470635 171.39978302 -182.91812524 191.81672048 -178.4375 208.92578125 C-173.00131493 208.97631064 -167.56527492 209.01201636 -162.12890625 209.03564453 C-160.29066581 209.04552412 -158.45244026 209.0590301 -156.61425781 209.07666016 C-153.92769634 209.10172687 -151.24134703 209.11244329 -148.5546875 209.12109375 C-147.37977249 209.13657761 -147.37977249 209.13657761 -146.18112183 209.15237427 C-135.82256405 209.15428443 -125.8648413 207.87372137 -115.4375 206.92578125 C-115.1075 187.12578125 -114.7775 167.32578125 -114.4375 146.92578125 C-118.07570303 146.92578125 -121.59417871 147.42642899 -125.19140625 147.9140625 Z M182.42578125 228.63671875 C177.15578379 232.28262894 171.17521351 232.32051143 165.0078125 232.55859375 C164.10626434 232.60015594 163.20471619 232.64171814 162.27584839 232.68453979 C159.41335725 232.8146629 156.55051847 232.93289225 153.6875 233.05078125 C151.73954828 233.13723456 149.79163091 233.22446573 147.84375 233.3125 C143.08368398 233.52593524 138.32327043 233.72870956 133.5625 233.92578125 C133.13284959 239.53066232 132.70567138 245.13572433 132.28076172 250.7409668 C132.13593022 252.64694279 131.99042874 254.55286799 131.84423828 256.45874023 C131.63396976 259.20152857 131.4261281 261.94449179 131.21875 264.6875 C131.15312866 265.53664474 131.08750732 266.38578949 131.01989746 267.26066589 C130.72738902 271.15893918 130.47902598 275.01293645 130.5625 278.92578125 C134.71543472 278.34302084 138.33715135 277.35261928 142.25 275.86328125 C150.61218073 273.02759125 158.28945145 272.81742111 166.61328125 275.92578125 C169.59772973 277.45688107 171.41712938 279.3651776 173.5625 281.92578125 C183.5787136 264.37159247 186.52824243 244.84884821 187.5625 224.92578125 C185.35330297 224.92578125 183.9668392 227.21612085 182.42578125 228.63671875 Z M41.453125 233.3671875 C40.21704498 233.42567116 40.21704498 233.42567116 38.95599365 233.4853363 C35.0697156 233.69588757 31.36230445 234.01686268 27.5625 234.92578125 C29.31629091 256.68450739 31.56591707 278.30185277 34.5625 299.92578125 C45.32430536 299.56921108 55.70601972 297.25532008 66.21166992 295.06005859 C69.27941174 294.4196413 72.34941897 293.79109408 75.41992188 293.1640625 C77.36732908 292.76240458 79.31460007 292.36008551 81.26171875 291.95703125 C82.1813591 291.76846558 83.10099945 291.5798999 84.04850769 291.38562012 C84.89061295 291.20873657 85.7327182 291.03185303 86.6003418 290.84960938 C87.343582 290.69496216 88.0868222 290.54031494 88.85258484 290.38098145 C90.58173571 290.07368004 90.58173571 290.07368004 91.5625 288.92578125 C91.77334539 287.32380319 91.92126275 285.71348009 92.04321289 284.10229492 C92.16322411 282.56015572 92.16322411 282.56015572 92.28565979 280.98686218 C92.40916054 279.30727165 92.40916054 279.30727165 92.53515625 277.59375 C92.62252548 276.45045731 92.70989471 275.30716461 92.7999115 274.12922668 C92.98438856 271.70407009 93.16665974 269.27874487 93.34692383 266.85327148 C93.62305511 263.13943908 93.90563923 259.42614303 94.18945312 255.71289062 C94.36756745 253.36070582 94.54531389 251.00849313 94.72265625 248.65625 C94.84919334 246.98576851 94.84919334 246.98576851 94.97828674 245.28153992 C95.05514206 244.24399063 95.13199738 243.20644135 95.21118164 242.13745117 C95.31324669 240.76963753 95.31324669 240.76963753 95.41737366 239.37419128 C95.5445897 237.22794396 95.5625 235.07579556 95.5625 232.92578125 C89.80485331 232.90060994 84.04724031 232.88270451 78.28955078 232.87084961 C76.34065186 232.86589505 74.3917565 232.85912952 72.44287109 232.8503418 C62.10127171 232.80496049 51.7845075 232.86709156 41.453125 233.3671875 Z M-43.23925781 239.57983398 C-46.32566467 239.86449544 -49.41272983 240.14089055 -52.5 240.41601562 C-54.47660584 240.594573 -56.45316995 240.77359303 -58.4296875 240.953125 C-59.3453952 241.03545883 -60.26110291 241.11779266 -61.20455933 241.20262146 C-65.65436411 241.61575559 -70.03851978 242.11211012 -74.4375 242.92578125 C-71.86494985 262.91946052 -67.86716525 282.79293754 -61.4375 301.92578125 C-48.54675399 302.79476527 -35.72993474 303.05245673 -22.8125 302.98828125 C-21.01562627 302.98324663 -19.21875115 302.97868725 -17.421875 302.97460938 C-13.09371437 302.9637812 -8.76562348 302.94662963 -4.4375 302.92578125 C-4.91427032 294.04567463 -5.50973256 285.28358739 -6.875 276.48828125 C-8.27288912 266.97444251 -9.12778976 257.46489929 -9.79077148 247.87329102 C-9.89820679 246.36013306 -9.89820679 246.36013306 -10.0078125 244.81640625 C-10.06727051 243.91954102 -10.12672852 243.02267578 -10.18798828 242.09863281 C-10.31699668 239.8815745 -10.31699668 239.8815745 -11.4375 237.92578125 C-22.09893947 237.5269422 -32.63500404 238.6008882 -43.23925781 239.57983398 Z M-175.4375 240.92578125 C-172.93139749 252.72996372 -170.14195646 264.40451396 -166.75 275.98828125 C-166.30418579 277.51195312 -166.30418579 277.51195312 -165.84936523 279.06640625 C-164.54699485 283.4443204 -163.18031527 287.69996072 -161.4375 291.92578125 C-160.78716797 291.90483398 -160.13683594 291.88388672 -159.46679688 291.86230469 C-140.06631293 291.32976882 -121.59188714 293.12260929 -102.4375 295.92578125 C-102.60185547 295.11379272 -102.60185547 295.11379272 -102.76953125 294.28540039 C-103.82880552 289.02293873 -104.8601495 283.75558861 -105.875 278.484375 C-106.00165039 277.82660065 -106.12830078 277.16882629 -106.25878906 276.49111938 C-106.78430867 273.76091169 -107.30956869 271.03065625 -107.83300781 268.30004883 C-109.26796432 260.81815713 -110.73085894 253.35131087 -112.4375 245.92578125 C-113.07437744 245.93625488 -113.71125488 245.94672852 -114.36743164 245.95751953 C-153.59533249 246.51175438 -153.59533249 246.51175438 -170.328125 241.51171875 C-172.55438509 240.79195932 -172.55438509 240.79195932 -175.4375 240.92578125 Z M135.82177734 317.55664062 C129.54413137 319.74804839 129.54413137 319.74804839 124.84667969 324.24121094 C122.52746292 329.43664465 121.6609982 334.81104893 120.96972656 340.42578125 C120.35851749 344.17804795 119.02598445 347.42650001 117.5625 350.92578125 C132.9759736 344.04348606 144.15415715 328.34071877 153.5625 314.92578125 C148.62859832 312.45883041 140.83811251 316.11117266 135.82177734 317.55664062 Z M-141.4375 325.92578125 C-139.18609536 330.0172043 -136.43214729 333.35483923 -133.25 336.73828125 C-132.7331665 337.29161133 -132.21633301 337.84494141 -131.68383789 338.41503906 C-121.53233724 349.20390051 -111.30795951 360.00626462 -99.4375 368.92578125 C-98.88320312 369.34585449 -98.32890625 369.76592773 -97.7578125 370.19873047 C-90.98470532 375.30259208 -84.42845072 379.89473098 -76.4375 382.92578125 C-78.79410837 374.15196543 -81.24946724 365.40699896 -83.77148438 356.67944336 C-84.21977602 355.12044672 -84.66370866 353.56019076 -85.10351562 351.9987793 C-85.74600438 349.71998161 -86.40267033 347.44570319 -87.0625 345.171875 C-87.25634277 344.47299667 -87.45018555 343.77411835 -87.64990234 343.05406189 C-88.74199655 339.35220584 -89.11311683 338.1420367 -92.4375 335.92578125 C-94.47108568 335.26639015 -94.47108568 335.26639015 -96.73779297 334.78076172 C-97.602341 334.58070526 -98.46688904 334.3806488 -99.3576355 334.17453003 C-100.28891266 333.96611481 -101.22018982 333.75769958 -102.1796875 333.54296875 C-103.14021027 333.3238382 -104.10073303 333.10470764 -105.09036255 332.87893677 C-107.12221293 332.41705231 -109.15477738 331.95829956 -111.18798828 331.50244141 C-114.29534698 330.80463324 -117.39969408 330.09447148 -120.50390625 329.3828125 C-122.47899808 328.93545297 -124.4542534 328.48881447 -126.4296875 328.04296875 C-127.3569162 327.83050507 -128.2841449 327.61804138 -129.23947144 327.3991394 C-130.11032379 327.20538727 -130.98117615 327.01163513 -131.87841797 326.81201172 C-132.63992157 326.6403952 -133.40142517 326.46877869 -134.18600464 326.29196167 C-136.63718692 325.89330442 -138.95834045 325.86378774 -141.4375 325.92578125 Z M73.875 333.16796875 C73.21725586 333.29640167 72.55951172 333.42483459 71.88183594 333.55715942 C69.77486295 333.96905895 67.66866172 334.38475526 65.5625 334.80078125 C62.81272096 335.34097377 60.06264488 335.87964217 57.3125 336.41796875 C56.31633667 336.61335236 56.31633667 336.61335236 55.30004883 336.81268311 C49.72993164 337.90177653 44.15048031 338.93279005 38.5625 339.92578125 C38.51424072 340.75368164 38.46598145 341.58158203 38.41625977 342.43457031 C37.78649253 352.25647757 36.58355068 361.95373276 35.21655273 371.69580078 C34.13076678 379.48214074 33.23792229 387.05680757 33.5625 394.92578125 C53.32064031 390.83417726 70.13400829 381.85041527 87.5625 371.92578125 C87.5625 371.26578125 87.5625 370.60578125 87.5625 369.92578125 C86.82 369.53390625 86.0775 369.14203125 85.3125 368.73828125 C80.57819113 365.61794132 79.01431762 361.56362014 77.5625 356.30078125 C77.03338244 350.26884101 79.63325639 344.53553758 81.5625 338.92578125 C81.99127469 337.49184623 82.41101901 336.05509621 82.8125 334.61328125 C83.06 333.72640625 83.3075 332.83953125 83.5625 331.92578125 C80.17365476 331.92578125 77.20278183 332.51328691 73.875 333.16796875 Z M-48.4375 341.92578125 C-47.46514277 348.73228185 -45.83910443 354.76782885 -43.8125 361.30078125 C-43.28160767 363.02385498 -43.28160767 363.02385498 -42.73999023 364.78173828 C-40.17004687 372.96408972 -37.22343402 380.87766243 -33.78515625 388.73046875 C-32.75705407 391.16811392 -31.94961405 393.34576361 -31.4375 395.92578125 C-22.69797454 397.37374997 -14.29838167 398.21789823 -5.4375 397.92578125 C-5.32792969 396.61867188 -5.21835938 395.3115625 -5.10546875 393.96484375 C-4.32087496 385.00697619 -3.41578202 376.15269106 -1.8125 367.30078125 C-0.3115466 358.92160145 0.24528778 351.33972016 -1.4375 342.92578125 C-24.7025 342.43078125 -24.7025 342.43078125 -48.4375 341.92578125 Z " fill="#FFFFFF" transform="translate(255.4375,30.07421875)"/>
</svg>
