<?xml version="1.0" encoding="UTF-8"?>
<svg version="1.1" xmlns="http://www.w3.org/2000/svg" width="512" height="512">
<path d="M0 0 C2.44663659 2.25982349 4.81335669 4.59060802 7.17895508 6.93530273 C7.85829102 7.5656543 8.53762695 8.19600586 9.23754883 8.84545898 C26.31454108 24.93358309 32.7289832 47.3649225 33.41723633 70.13061523 C33.66457197 85.56123989 32.49618156 99.8803882 29.17895508 114.93530273 C28.94869629 116.01650391 28.7184375 117.09770508 28.48120117 118.21166992 C22.87212719 144.43249197 16.04762804 170.18593659 -5.82104492 187.93530273 C-6.48104492 187.93530273 -7.14104492 187.93530273 -7.82104492 187.93530273 C-7.82104492 188.59530273 -7.82104492 189.25530273 -7.82104492 189.93530273 C-9.30842728 191.28912422 -10.86535043 192.56670159 -12.44604492 193.81030273 C-16.38260311 196.9524655 -20.24644109 200.14225286 -24.04394531 203.45092773 C-32.04357346 210.41419795 -40.02748589 217.06453889 -49.50854492 221.93530273 C-53.19900848 223.86121461 -55.86635833 225.76112263 -58.69604492 228.81030273 C-63.63985999 234.09927122 -70.87311051 239.9872678 -78.12353516 241.37646484 C-80.77631153 241.90594449 -82.57402205 242.41144047 -84.82104492 243.93530273 C-86.75404812 248.07939029 -87.32351996 252.37679379 -88.00854492 256.87280273 C-88.47909105 259.43901737 -88.95568953 262.00412936 -89.43823242 264.56811523 C-89.66736328 265.82914062 -89.89649414 267.09016602 -90.13256836 268.3894043 C-99.29843157 315.59685015 -125.96201947 356.98329535 -165.56762695 384.13256836 C-184.47474271 396.63574577 -209.69000998 407.76706603 -232.82104492 404.93530273 C-236.2686349 404.1777402 -239.52351053 403.18564485 -242.82104492 401.93530273 C-246.23274522 400.7980693 -247.48818317 401.13596033 -250.94604492 401.87280273 C-271.3194596 405.43201373 -290.375271 401.70804149 -307.59838867 390.05639648 C-328.84712984 373.84972949 -337.38382503 351.30848885 -341.82104492 325.93530273 C-342.0144043 324.83186523 -342.20776367 323.72842773 -342.40698242 322.59155273 C-348.31639345 270.41033838 -324.4449575 222.68435851 -292.82104492 182.93530273 C-289.90718637 179.51625508 -286.88085335 176.22309688 -283.82104492 172.93530273 C-282.75466206 171.68861359 -281.69206501 170.43867478 -280.63354492 169.18530273 C-272.70874196 160.12050491 -264.07083772 151.62699098 -254.62182617 144.16577148 C-250.76778436 141.09651364 -247.04327897 137.88059717 -243.32275391 134.65136719 C-240.98011616 132.64459939 -238.95868999 130.99557218 -236.11791992 129.75170898 C-232.2917732 126.72592969 -231.98762205 122.35708081 -230.94604492 117.74780273 C-228.49457086 107.91383923 -225.31851237 99.00241614 -220.82104492 89.93530273 C-220.26545898 88.79706055 -219.70987305 87.65881836 -219.13745117 86.48608398 C-213.44962121 75.38627724 -205.90457247 64.56138645 -196.82104492 55.93530273 C-196.16104492 55.93530273 -195.50104492 55.93530273 -194.82104492 55.93530273 C-194.60448242 55.3694043 -194.38791992 54.80350586 -194.16479492 54.22045898 C-184.8818648 38.43408072 -156.24431353 27.71624284 -140.85717773 19.54956055 C-137.94070445 17.99892358 -135.032883 16.4330163 -132.12573242 14.86499023 C-95.44382619 -4.77373199 -37.57821477 -33.35724281 0 0 Z M-87.82104492 36.93530273 C-88.83005859 37.39646484 -89.83907227 37.85762695 -90.87866211 38.33276367 C-105.86944026 45.23968148 -120.46003718 52.80474579 -134.82104492 60.93530273 C-135.62074707 61.38679688 -136.42044922 61.83829102 -137.24438477 62.3034668 C-153.98471496 71.80445186 -170.54181086 82.13823031 -180.82104492 98.93530273 C-180.82104492 99.59530273 -180.82104492 100.25530273 -180.82104492 100.93530273 C-179.92498535 100.91959229 -179.02892578 100.90388184 -178.10571289 100.88769531 C-174.70981809 100.83588463 -171.31435653 100.79862779 -167.91821289 100.77050781 C-166.46176432 100.7556265 -165.00535884 100.73531478 -163.54907227 100.70898438 C-150.59224931 100.48096575 -138.09680429 101.43214799 -126.44604492 107.68530273 C-125.43356689 108.21571167 -125.43356689 108.21571167 -124.40063477 108.75683594 C-107.23114294 118.02320777 -95.66185113 136.91164085 -89.50854492 155.06030273 C-85.42766462 169.97985138 -83.26934555 185.49134593 -82.82104492 200.93530273 C-77.95432476 199.52837818 -75.39080953 196.59334818 -72.19604492 192.87280273 C-67.70248498 187.82741425 -63.0718649 183.43621844 -57.74682617 179.25170898 C-54.29952006 176.52239988 -50.96447759 173.67955264 -47.63354492 170.81030273 C-47.03566162 170.29580566 -46.43777832 169.78130859 -45.82177734 169.2512207 C-44.15364887 167.81398548 -42.48724638 166.37477094 -40.82104492 164.93530273 C-39.58741211 163.87375977 -39.58741211 163.87375977 -38.32885742 162.79077148 C-34.68214849 159.63258394 -31.14699805 156.43630602 -27.82104492 152.93530273 C-27.33893555 152.43643555 -26.85682617 151.93756836 -26.36010742 151.42358398 C-19.24145098 143.67255958 -16.09828089 134.59951994 -13.75854492 124.49780273 C-13.50886963 123.45881836 -13.25919434 122.41983398 -13.00195312 121.34936523 C-3.1920813 83.17177863 -3.1920813 83.17177863 -11.82104492 45.93530273 C-17.28236339 37.37923713 -24.06109332 27.73994264 -34.50854492 25.31030273 C-53.61939018 23.14681082 -70.70397325 29.07316055 -87.82104492 36.93530273 Z M-195.82104492 149.93530273 C-196.23233999 166.66130219 -195.00468491 182.56719301 -183.75854492 195.97045898 C-169.71996238 210.20716668 -148.05974199 210.7924494 -129.26782227 210.95776367 C-127.11888361 210.95860392 -124.9699459 210.94805586 -122.82104492 210.93530273 C-118.49914428 194.34052395 -123.70004189 170.72761484 -131.83666992 156.00170898 C-135.98870313 149.58567342 -140.74455059 142.47709539 -148.47338867 140.32592773 C-166.10119932 137.39284776 -180.65169125 140.62683571 -195.82104492 149.93530273 Z M-247.88354492 191.81030273 C-251.70885882 195.6893861 -255.13541369 199.84581186 -258.53979492 204.09545898 C-260.01697125 205.93434117 -261.51584032 207.75609096 -263.03979492 209.55639648 C-281.69811125 231.6638734 -297.28939207 259.09751184 -301.82104492 287.93530273 C-302.00280273 288.98975586 -302.18456055 290.04420898 -302.37182617 291.13061523 C-304.54924769 309.57242881 -304.21875161 332.70259507 -292.88354492 348.31030273 C-285.48814735 357.39236993 -278.43572852 362.07320236 -266.82104492 363.93530273 C-254.60183745 365.07356785 -243.44151557 362.54631687 -231.7277832 359.3671875 C-227.61236458 358.27343247 -223.82885205 357.63952187 -219.57104492 357.62280273 C-218.57588867 357.60604492 -217.58073242 357.58928711 -216.55541992 357.57202148 C-213.82104492 357.93530273 -213.82104492 357.93530273 -211.77416992 359.51733398 C-209.90729445 361.18516133 -209.90729445 361.18516133 -207.48510742 360.81420898 C-192.8540679 355.98725313 -180.84729274 346.39864901 -169.82104492 335.93530273 C-169.33990234 335.48670898 -168.85875977 335.03811523 -168.36303711 334.57592773 C-144.72559872 312.44338092 -133.76997327 281.9492986 -126.82104492 250.93530273 C-126.82104492 250.60530273 -126.82104492 250.27530273 -126.82104492 249.93530273 C-128.13371338 249.87584473 -128.13371338 249.87584473 -129.47290039 249.81518555 C-160.32725027 248.34728245 -188.25828792 245.30943402 -211.82104492 222.93530273 C-223.3550084 209.96420004 -228.75743506 195.45191057 -232.82104492 178.93530273 C-237.22858897 178.93530273 -244.68244157 188.6995531 -247.88354492 191.81030273 Z " fill="#FFFFFF" transform="translate(403.821044921875,66.064697265625)"/>
</svg>
