<?xml version="1.0" encoding="UTF-8"?>
<svg version="1.1" xmlns="http://www.w3.org/2000/svg" width="512" height="512">
<path d="M0 0 C2.22958673 1.63973564 4.43116424 3.31284866 6.625 5 C7.6459375 5.7734375 8.666875 6.546875 9.71875 7.34375 C14.79280553 11.27756833 14.79280553 11.27756833 16.625 13 C16.625 13.66 16.625 14.32 16.625 15 C17.18960938 15.23332031 17.75421875 15.46664062 18.3359375 15.70703125 C43.75760103 30.0663668 58.7458414 75.92721014 66.13256836 102.25146484 C67.05983111 105.81605499 67.88118221 109.39299317 68.625 113 C68.86605469 114.13179687 69.10710937 115.26359375 69.35546875 116.4296875 C70.59811445 122.98485208 70.86101863 129.33902989 70.625 136 C72.34082275 135.75769653 72.34082275 135.75769653 74.09130859 135.51049805 C78.46229825 134.96674746 82.76338497 134.83919823 87.1640625 134.83203125 C88.35742973 134.82574707 88.35742973 134.82574707 89.5749054 134.81933594 C92.13332141 134.80961872 94.69156871 134.80953528 97.25 134.8125 C98.12061066 134.81277191 98.99122131 134.81304382 99.88821411 134.81332397 C110.13338392 134.82807677 120.34957025 134.91082284 130.5625 135.8125 C131.80797607 135.91751831 131.80797607 135.91751831 133.07861328 136.0246582 C140.31269412 136.78698044 147.41308601 138.64331062 152.625 144 C156.31733661 149.10874115 157.32539929 154.06678325 157.07421875 160.3203125 C155.89197743 167.37263897 151.23804529 171.97325012 145.625 176 C142.15174819 177.1577506 139.26432552 177.06866652 135.625 177 C135.74093506 177.54301758 135.85687012 178.08603516 135.97631836 178.64550781 C136.5126195 181.17880034 137.0375652 183.71432879 137.5625 186.25 C137.74490234 187.10335937 137.92730469 187.95671875 138.11523438 188.8359375 C140.26313171 199.3020554 140.77942851 209.75128816 140.7578125 220.4140625 C140.75926773 221.45957779 140.76072296 222.50509308 140.76222229 223.58229065 C140.76444282 226.92989863 140.75824864 230.27740241 140.75 233.625 C140.74811676 234.76595123 140.74623352 235.90690247 140.74429321 237.08242798 C140.61823126 301.93360131 140.61823126 301.93360131 129 313.9375 C126.11426419 316.70352188 124.47609951 317.86649419 120.4375 318.5 C115.78167398 317.88939987 114.32005414 316.59634125 111.26171875 313.1875 C104.00515712 303.4889928 102.26477361 293.15520338 102.3828125 281.3125 C102.38854279 280.24999023 102.39427307 279.18748047 102.400177 278.09277344 C102.57204723 262.54858334 103.50172384 247.0250482 104.3626709 231.50714111 C104.54651333 228.15083194 104.72131612 224.79407593 104.89613152 221.43728638 C105.06881183 218.14233114 105.24688238 214.84768333 105.42651749 211.55310059 C105.51013427 210.00980745 105.59228271 208.46643386 105.6727562 206.92297363 C106.23531219 196.21845207 107.2599485 185.63204577 108.625 175 C41.19879443 176.28554726 -26.12466508 183.42003351 -92.92919922 192.38549805 C-112.86096988 195.05095827 -132.73506326 197.42252179 -152.875 197.125 C-154.1021875 197.11597656 -155.329375 197.10695312 -156.59375 197.09765625 C-159.5210761 197.07478651 -162.4479045 197.04243113 -165.375 197 C-165.21507568 198.14718506 -165.05515137 199.29437012 -164.89038086 200.47631836 C-164.35379804 204.78593935 -164.19021988 209.03991387 -164.12890625 213.37890625 C-164.09758737 215.01742029 -164.06599984 216.65592921 -164.03417969 218.29443359 C-164.01883179 219.15091492 -164.00348389 220.00739624 -163.9876709 220.88983154 C-163.30817307 257.08755711 -160.88673295 292.87154564 -157.08621216 328.88009644 C-156.99250336 329.77656891 -156.89879456 330.67304138 -156.80224609 331.59667969 C-156.71945404 332.37839539 -156.63666199 333.16011108 -156.55136108 333.96551514 C-156.375 336 -156.375 336 -156.375 339 C-137.20080723 337.75371897 -118.3221888 334.67395038 -99.36050415 331.69262695 C-89.83877112 330.19644331 -80.31188157 328.73352783 -70.78515625 327.26953125 C-69.37650205 327.05286489 -69.37650205 327.05286489 -67.93939018 326.83182144 C-27.87335986 320.67325995 12.23472517 315.50891767 52.625 312 C53.66311829 311.90936279 54.70123657 311.81872559 55.77081299 311.7253418 C61.94172636 311.19115007 68.11407376 310.68648391 74.29052734 310.22058105 C76.1960682 310.07548952 78.10120747 309.92500539 80.00585938 309.76867676 C82.62922315 309.55636175 85.25321609 309.36845085 87.87890625 309.1875 C88.6359938 309.12230164 89.39308136 309.05710327 90.17311096 308.9899292 C98.44248283 308.48094525 105.55538292 311.15534953 111.9609375 316.3359375 C115.55622452 319.93122452 116.74741892 324.0541819 117.0625 329 C116.74976456 335.49238765 113.32223955 339.57310547 108.75 343.8125 C104.0883437 347.93627288 99.00849393 349.1518763 92.90234375 349.67578125 C91.75185547 349.77874512 90.60136719 349.88170898 89.41601562 349.98779297 C88.14435547 350.09494629 86.87269531 350.20209961 85.5625 350.3125 C84.18025609 350.43543717 82.79809728 350.55933404 81.41601562 350.68408203 C78.27873788 350.96665409 75.14119254 351.24594838 72.00341797 351.52294922 C23.19250401 355.84234804 -25.07707725 361.65767433 -73.48950195 369.16650391 C-74.25873804 369.28568774 -75.02797413 369.40487158 -75.8205204 369.52766705 C-79.45386232 370.09074871 -83.08692809 370.65548317 -86.71942139 371.22401428 C-128.22257761 377.6944444 -128.22257761 377.6944444 -148.77734375 375.4453125 C-149.71368652 375.34323486 -150.6500293 375.24115723 -151.61474609 375.13598633 C-153.45965934 374.9245601 -155.30270444 374.69593708 -157.14306641 374.44799805 C-162.60372448 373.80559809 -165.50812842 374.11989832 -170.375 377 C-175.93513237 377.9452225 -180.68869069 377.22834642 -185.375 374 C-193.86075186 366.1522746 -195.96945805 356.74633028 -196.97265625 345.60546875 C-197.09224197 344.40574432 -197.2118277 343.2060199 -197.33503723 341.96994019 C-197.65380544 338.71995013 -197.95781917 335.46906435 -198.25252533 332.21681595 C-198.43881787 330.17304197 -198.63018786 328.12980238 -198.82305908 326.0866394 C-202.16589057 290.59622872 -204.55705626 255.0956477 -204.8125 219.4375 C-204.82480652 218.47087433 -204.83711304 217.50424866 -204.84979248 216.5083313 C-205.10145021 193.18277376 -205.10145021 193.18277376 -198.33178711 185.75952148 C-193.26413806 181.03008333 -189.4488315 179.77621263 -182.60546875 179.83203125 C-179.90709334 180.0352364 -177.77401431 180.76179907 -175.375 182 C-175.2925 181.4225 -175.21 180.845 -175.125 180.25 C-173.86906767 176.48220301 -171.323699 174.51232725 -167.88671875 172.65625 C-159.86404151 169.37172377 -151.77792163 167.0548128 -143.375 165 C-145.16073558 158.05662967 -147.24691811 151.27522747 -149.58569336 144.49902344 C-162.93290188 105.82038603 -169.02156439 66.3061266 -150.65625 28.17114258 C-141.66909514 10.40052524 -128.07188823 -4.68817103 -110.375 -14 C-109.75898926 -14.33 -109.14297852 -14.66 -108.50830078 -15 C-74.18196026 -32.89915526 -30.10616081 -21.59395315 0 0 Z M-107.375 31 C-119.47734506 45.37004286 -126.375 66.25161234 -126.375 85 C-126.37757813 85.64243652 -126.38015625 86.28487305 -126.3828125 86.94677734 C-126.30771138 107.39775132 -121.11003954 127.19028578 -115.61083984 146.76196289 C-115.32031738 147.79699951 -115.02979492 148.83203613 -114.73046875 149.8984375 C-114.33831177 151.27008057 -114.33831177 151.27008057 -113.93823242 152.66943359 C-113.375 155 -113.375 155 -113.375 158 C-106.58974921 157.50392234 -100.02657589 156.41682418 -93.35888672 155.08374023 C-53.55166162 147.12783589 -12.70487223 142.31494098 27.75952148 139.23950195 C29.71427239 139.09272857 29.71427239 139.09272857 31.625 138 C31.39093005 135.45602919 31.13786631 132.91604102 30.875 130.375 C30.813125 129.68148437 30.75125 128.98796875 30.6875 128.2734375 C29.38134251 116.08263428 24.92532664 104.51248535 20.4375 93.1875 C19.95555176 91.970625 19.47360352 90.75375 18.97705078 89.5 C6.64372014 58.88829112 -11.68189809 35.59539952 -42.28710938 21.87255859 C-65.80529865 12.04397949 -88.94740078 11.87872683 -107.375 31 Z " fill="#FFFFFF" transform="translate(281.375,40)"/>
<path d="M0 0 C3.9432716 3.54894444 6.33564323 8.25104549 8.8125 12.875 C9.410625 13.968125 10.00875 15.06125 10.625 16.1875 C13.51200997 25.1524257 13.82666183 34.24882245 9.8125 42.875 C7.97246746 46.00398935 5.98314018 48.96676365 3.8125 51.875 C4.493125 52.535 5.17375 53.195 5.875 53.875 C7.51241045 55.47582027 8.95612411 57.06236749 10.3515625 58.8828125 C14.29961367 63.95353225 17.13016744 65.55326609 23.30859375 67.0625 C27.81155963 68.52368082 30.9745446 71.12157512 33.8125 74.875 C35.95631219 79.73270177 36.27687977 84.35701204 35 89.5 C32.75628547 95.07976378 28.54891307 98.37676736 23.8125 101.875 C23.12800781 102.38675781 22.44351563 102.89851563 21.73828125 103.42578125 C9.00121223 111.90953817 -7.40708784 116.48071337 -22.1875 119.875 C-23.07308594 120.08769531 -23.95867187 120.30039062 -24.87109375 120.51953125 C-30.59759124 121.79310429 -36.29375138 122.28395378 -42.14453125 122.640625 C-44.67195957 122.83529214 -47.02023146 123.20031561 -49.5 123.6875 C-54.32260194 123.93271705 -57.38541925 122.83217392 -61.1875 119.875 C-66.8978521 112.88066341 -67.4322827 105.43434886 -66.6796875 96.84375 C-65.84621311 90.12303584 -64.55646139 83.50456144 -63.1875 76.875 C-63.76886719 76.61589844 -64.35023438 76.35679687 -64.94921875 76.08984375 C-74.11168237 71.11684866 -80.94560511 60.35939754 -84.125 50.6875 C-86.40037427 41.71319777 -85.22602888 33.83171999 -81.00390625 25.5546875 C-71.02505829 9.32845881 -51.60490506 -0.36823907 -33.625 -5.0625 C-20.97053288 -7.57767359 -10.74495463 -7.16330309 0 0 Z " fill="#5EBD41" transform="translate(276.1875,237.125)"/>
</svg>
