<?xml version="1.0" encoding="UTF-8"?>
<svg version="1.1" xmlns="http://www.w3.org/2000/svg" width="512" height="512">
<path d="M0 0 C11.12659504 5.9180422 21.90621954 12.4146177 31.7578125 20.29296875 C33.78201982 21.83404645 35.68682969 22.96067233 38 24 C38.556875 23.35933594 39.11375 22.71867187 39.6875 22.05859375 C53.12606974 6.82670136 68.66873974 -3.66969506 89.3125 -6 C104.77901984 -6.5546614 117.78017988 -1.84363523 129.30859375 8.33203125 C133.22619319 12.21551516 136.23124287 16.24030669 139 21 C139.52078125 21.89074219 140.0415625 22.78148437 140.578125 23.69921875 C153.0849302 46.8494415 153.61615098 71.69332664 148.6875 96.9375 C148.48697021 97.96738037 148.28644043 98.99726074 148.07983398 100.05834961 C146.64364542 106.96239663 144.58280181 113.44079829 142 120 C142.60561768 120.28649414 143.21123535 120.57298828 143.83520508 120.86816406 C146.80258198 122.41961995 149.17815361 124.56378876 151.6875 126.75 C152.84284228 127.74194364 153.9991423 128.73277255 155.15625 129.72265625 C155.77371094 130.25133301 156.39117187 130.78000977 157.02734375 131.32470703 C160.54988527 134.31625158 164.11838893 137.25180939 167.6875 140.1875 C168.41179199 140.78385254 169.13608398 141.38020508 169.88232422 141.99462891 C174.55406312 145.83323216 179.25704743 149.62586719 184.01953125 153.3515625 C186.15749372 155.13108944 188.12916715 156.9399818 190 159 C190 159.66 190 160.32 190 161 C190.99 161.33 191.98 161.66 193 162 C193 162.66 193 163.32 193 164 C193.55171875 164.22300781 194.1034375 164.44601563 194.671875 164.67578125 C197.7305676 166.41554097 199.8073812 168.65764482 202.25 171.1875 C205.44246204 174.45640277 208.64690448 177.65674579 212.125 180.625 C224.39063964 191.14563111 224.39063964 191.14563111 228 198 C228 198.66 228 199.32 228 200 C228.7425 200.20625 229.485 200.4125 230.25 200.625 C233.83368332 202.41684166 235.03492182 204.56111318 237 208 C239.20662101 214.61986303 238.39243653 220.45836246 235.30859375 226.63671875 C227.94541928 239.93439206 218.26529701 250.86561106 207.625 261.625 C207.05450928 262.20483643 206.48401855 262.78467285 205.89624023 263.38208008 C201.32887294 267.91471962 196.81958481 271.79945849 190.4375 273.375 C185.60073188 274.84142383 184.02530572 277.05029531 181 281 C176.28063668 283.80610792 171.03802812 283.64214093 165.80078125 282.53515625 C156.85792954 279.89756124 150.46658477 274.64239653 144.10546875 268.02734375 C138.63584114 262.76067078 131.69149046 257.06098025 123.8125 256.9765625 C118.71193802 257.29534762 115.52907231 258.08940636 112 262 C106.75689862 269.52385048 102.46483162 277.54659469 104 287 C108.08535734 300.39617173 116.55597794 310.95390003 126 321 C130.47007559 325.90201548 134.67545346 331.00376321 138.8125 336.1875 C139.29315918 336.78208008 139.77381836 337.37666016 140.26904297 337.98925781 C144.76935984 343.68614456 146.47995742 348.24240492 146.31640625 355.55859375 C145.84051121 359.23062342 144.48894365 361.3092501 142 364 C138.08003758 366.33078847 134.4859068 366.17591791 130 366 C129.6596875 366.8353125 129.6596875 366.8353125 129.3125 367.6875 C127.63834888 370.63719484 125.47026094 372.7266494 123 375 C122.36513672 375.5870874 121.73027344 376.1741748 121.07617188 376.77905273 C115.82362813 381.54050019 110.39533672 385.78865092 104.5625 389.8125 C103.70213135 390.40998047 102.8417627 391.00746094 101.95532227 391.62304688 C93.51026386 397.43197269 84.84103997 402.81855255 76 408 C74.90429688 408.65226562 73.80859375 409.30453125 72.6796875 409.9765625 C65.14068313 414.31097646 59.5504933 415.76991715 51.00390625 413.6875 C49 413 49 413 46.75 411.25 C46.1725 410.8375 45.595 410.425 45 410 C42.39529669 410.67518454 42.39529669 410.67518454 40 412 C33.46948577 414.17683808 28.38668838 413.5160663 22.25 410.6875 C15.56692937 407.09088565 10.13101949 402.32589082 4.49902344 397.30908203 C2.39820697 395.47446023 0.20407294 393.77083485 -2 392.0625 C-12.22543943 383.94181066 -22.29188765 374.73772884 -31 365 C-31 364.34 -31 363.68 -31 363 C-31.63164062 363.52207031 -32.26328125 364.04414063 -32.9140625 364.58203125 C-35.38343728 366.61375027 -37.86233384 368.63326027 -40.34521484 370.6484375 C-41.95453703 371.96286766 -43.54960383 373.29316872 -45.14453125 374.625 C-66.73916796 392.40996769 -94.34424794 408.26200521 -123.25 405.625 C-136.17622131 404.03435976 -147.59093436 397.84975897 -155.859375 387.72265625 C-167.61384296 371.82398484 -172.33997493 352.4279383 -169.71875 332.90527344 C-167.01491883 316.87431991 -158.97096293 301.90900066 -148 290 C-147.34 290 -146.68 290 -146 290 C-145.34 288.68 -144.68 287.36 -144 286 C-143.34 286 -142.68 286 -142 286 C-143.20417769 282.38746692 -144.11997103 282.01937353 -147.25 280 C-153.9287425 275.48681819 -159.9107977 270.26246987 -166 265 C-167.35380875 263.85374381 -168.70789239 262.70781201 -170.0625 261.5625 C-174.93814433 257.30927835 -174.93814433 257.30927835 -177 255 C-177 254.34 -177 253.68 -177 253 C-178.32 252.34 -179.64 251.68 -181 251 C-181 250.34 -181 249.68 -181 249 C-181.99 248.67 -182.98 248.34 -184 248 C-185.5078125 246.50390625 -185.5078125 246.50390625 -187.125 244.5625 C-189.84562143 241.34252401 -192.63623887 238.21844846 -195.5 235.125 C-205.65163752 223.79936359 -211.6474332 212.4786232 -214.01269531 197.43115234 C-214.45036526 194.67410609 -214.84147509 192.30506512 -216.13671875 189.8125 C-217.66148261 186.61118583 -216.30922052 184.05104559 -215.234375 180.8359375 C-209.35633018 167.33131554 -198.22883315 155.35389341 -189 144 C-188.5153125 143.39027344 -188.030625 142.78054687 -187.53125 142.15234375 C-185.75333107 139.94620655 -184.22631372 138.14225434 -181.8125 136.625 C-179.37864412 134.44292231 -179.20827043 132.16601191 -178.546875 129.05859375 C-177.33364539 124.49165088 -174.76411226 121.62827008 -171.1875 118.6875 C-166.10948563 115.99913945 -162.11544703 115.45833461 -156.625 117.0625 C-151.55522234 118.94972688 -147.40343117 121.91383456 -143 125 C-129.19018295 134.30501042 -110.01221939 143.17721166 -93.015625 140.50390625 C-88.54088287 139.38522072 -86.5355504 137.6991908 -83.75 134.0625 C-78.47412747 124.82972307 -80.4821632 112.97388976 -83.09570312 103.11328125 C-86.76636638 90.37030981 -92.50811332 74.66125779 -104 67 C-104 66.34 -104 65.68 -104 65 C-104.598125 64.7525 -105.19625 64.505 -105.8125 64.25 C-108.45537263 62.73978707 -109.60337792 61.71973773 -111 59 C-110.6875 55.25 -110.6875 55.25 -110 52 C-109.34 52 -108.68 52 -108 52 C-108.0825 51.01 -108.165 50.02 -108.25 49 C-108.14870386 42.66899136 -105.49195838 38.38657281 -101.1328125 34.046875 C-92.6643121 26 -92.6643121 26 -90 26 C-90 25.34 -90 24.68 -90 24 C-88.54443359 22.55029297 -88.54443359 22.55029297 -86.5234375 20.8671875 C-82.08384491 17.09167827 -77.85034193 13.13716543 -73.625 9.125 C-47.56146573 -15.48473487 -32.37146886 -16.07880503 0 0 Z M-43.3203125 28.78125 C-43.93269775 29.37196289 -44.54508301 29.96267578 -45.17602539 30.57128906 C-46.14076782 31.52600098 -46.14076782 31.52600098 -47.125 32.5 C-48.47811612 33.79932947 -49.83358172 35.0962167 -51.19140625 36.390625 C-51.8477002 37.01775391 -52.50399414 37.64488281 -53.18017578 38.29101562 C-59.64700128 44.36396686 -66.90293268 49.4573755 -74.17993164 54.50097656 C-77.4231164 56.76968544 -80.3011867 59.101767 -83 62 C-82.33355469 62.44988281 -81.66710937 62.89976563 -80.98046875 63.36328125 C-62.10290609 76.53797183 -50.9263281 92.65266123 -46.6875 115.25 C-44.33638999 131.99885988 -47.04979529 147.07582983 -57.109375 160.8984375 C-66.19927475 171.63225529 -78.21773837 177.17195039 -92 179 C-115.74852955 180.75517036 -139.40241261 170.81661014 -160 160 C-160.43828125 160.63164062 -160.8765625 161.26328125 -161.328125 161.9140625 C-169.71770723 173.74814801 -178.8464599 184.67248196 -190 194 C-187.30465866 196.79357702 -184.52174994 199.20993373 -181.4375 201.5625 C-174.20812397 207.28842173 -167.66772231 213.79550548 -161.6875 220.8125 C-158.3250991 224.7434228 -154.7124296 228.4010276 -151.0625 232.0625 C-150.48910889 232.64040283 -149.91571777 233.21830566 -149.32495117 233.8137207 C-141.76588578 241.34714404 -133.6366693 247.90829326 -125.09179688 254.28125 C-113.45328716 263.05473433 -113.45328716 263.05473433 -112 269 C-111.99448996 270.66678776 -112.01806788 272.33379545 -112.0625 274 C-112.19186075 277.99954376 -112.19186075 277.99954376 -110.4375 281.5625 C-108.53982489 284.78029692 -108.67814477 286.77438209 -109.234375 290.4140625 C-111.67805544 298.66771787 -117.48975451 305.76885442 -122.4296875 312.69140625 C-130.38015144 324.37977488 -132.15898999 337.19494538 -129.734375 350.97265625 C-128.42109086 356.38646054 -126.3402889 361.32251384 -122 365 C-109.30406837 368.23169169 -96.71760083 361.26143289 -86 355 C-79.62090036 351.05014559 -73.70905415 346.56733368 -68.109375 341.578125 C-67.12723022 340.70353638 -67.12723022 340.70353638 -66.12524414 339.8112793 C-64.87379106 338.68186536 -63.63489266 337.53830942 -62.41186523 336.37817383 C-57.43701234 331.8337366 -52.08307233 329.00572661 -45.21484375 328.99609375 C-44.46332031 329.14175781 -43.71179688 329.28742188 -42.9375 329.4375 C-39.50863827 329.95446685 -37.32651941 329.97155996 -34.0625 328.8125 C-28.54102058 327.19375302 -23.96375735 329.58316366 -19 332 C-15.17260965 334.11590799 -11.59461067 336.51177076 -8 339 C-7.40509766 339.40718262 -6.81019531 339.81436523 -6.19726562 340.23388672 C41.45767215 372.9153443 41.45767215 372.9153443 47 384 C50.38774384 382.72806058 53.38666817 381.27105687 56.44921875 379.34765625 C57.288479 378.82397461 58.12773926 378.30029297 58.99243164 377.76074219 C60.32649048 376.9201123 60.32649048 376.9201123 61.6875 376.0625 C63.57510141 374.88084017 65.46312982 373.69986217 67.3515625 372.51953125 C68.29805664 371.92736816 69.24455078 371.33520508 70.21972656 370.72509766 C72.78756843 369.13180905 75.36858457 367.5647195 77.9609375 366.01171875 C86.69926956 360.77328261 95.01461272 355.34133696 103 349 C100.3635825 346.34896281 97.71374524 343.71729901 95.01953125 341.125 C79.31016487 325.90312365 64.50965977 307.64907793 63.625 284.75 C64.37816346 263.75180269 72.4408855 244.45889953 87.7421875 229.84765625 C99.61971721 220.12780927 112.98977982 216.32378197 128.19140625 217.1796875 C146.63228046 219.39711777 161.36592916 228.79165321 174 242 C174.66 242 175.32 242 176 242 C176 242.66 176 243.32 176 244 C178.46326712 245.6446674 178.46326712 245.6446674 181 247 C183.22522239 243.67459035 185.44888211 240.34814173 187.67114258 237.02075195 C188.42625475 235.89058728 189.18178219 234.76069995 189.93774414 233.63110352 C191.02861758 232.0009057 192.11784019 230.3696036 193.20703125 228.73828125 C193.8616333 227.75899658 194.51623535 226.77971191 195.19067383 225.77075195 C196.8595788 223.21503713 198.44953719 220.62886319 200 218 C199.30777344 217.50693359 199.30777344 217.50693359 198.6015625 217.00390625 C193.69191668 213.42355188 189.16441508 209.54776586 184.6875 205.44140625 C182.54676595 203.49669872 180.38080711 201.59968025 178.19140625 199.7109375 C173.93393299 195.99426222 169.92096519 192.06914734 165.9375 188.0625 C165.26912109 187.39798828 164.60074219 186.73347656 163.91210938 186.04882812 C159.96111369 182.09015314 156.22957101 178.0066438 152.57446289 173.7746582 C150.59529693 171.54383833 148.48307619 169.53761739 146.25 167.5625 C145.39148438 166.80195313 144.53296875 166.04140625 143.6484375 165.2578125 C141.10220126 163.08712733 138.50050524 161.01109723 135.875 158.9375 C106.46822458 135.05233817 106.46822458 135.05233817 104.18359375 121.0625 C104.12300781 120.381875 104.06242187 119.70125 104 119 C103.90847656 118.21625 103.81695312 117.4325 103.72265625 116.625 C103.36729132 110.80048204 104.47966943 105.86882291 106.3125 100.375 C112.40551385 82.09379165 116.58879016 59.10252696 108 41 C105.2816566 36.31551233 102.21520532 31.94054151 97 30 C88.25067413 28.40921348 80.32574901 32.15753378 73.140625 36.87890625 C65.76697033 42.53412445 57.01957991 50.94126028 54 60 C50.47208847 61.92431538 46.93850211 62.36613342 42.97265625 62.78125 C41.3049941 62.96617887 39.64914582 63.25328516 38 63.5625 C30.44852737 64.66375642 24.56861932 64.31004126 18.24438477 59.72802734 C16.38471822 58.20345676 14.56571638 56.63911733 12.75 55.0625 C0.70619188 44.99841847 -12.30701884 37.05293091 -26.4375 30.25 C-27.33170654 29.81921143 -28.22591309 29.38842285 -29.1472168 28.94458008 C-36.5149411 25.30145139 -36.5149411 25.30145139 -43.3203125 28.78125 Z " fill="#FFFFFF" transform="translate(252,53)"/>
</svg>
