<svg id="svg" version="1.1" xmlns="http://www.w3.org/2000/svg" xmlns:xlink="http://www.w3.org/1999/xlink" width="400" height="400" viewBox="0, 0, 400,400"><g id="svgg"><path id="path0" d="M305.700 101.822 C 304.545 103.011,303.600 104.186,303.600 104.432 C 303.600 104.678,303.060 105.383,302.400 106.000 C 301.740 106.617,301.200 107.301,301.200 107.521 C 301.200 107.741,300.303 108.794,299.206 109.861 C 298.110 110.927,297.210 111.940,297.206 112.111 C 297.203 112.281,296.435 113.216,295.500 114.187 C 293.593 116.168,293.292 116.535,292.284 118.105 C 291.894 118.713,290.410 120.375,288.987 121.798 C 287.564 123.221,286.400 124.569,286.400 124.793 C 286.400 125.017,286.248 125.200,286.061 125.200 C 285.644 125.200,284.000 126.597,284.000 126.952 C 284.000 127.093,282.155 129.094,279.900 131.398 C 274.012 137.413,273.202 138.317,273.182 138.889 C 273.171 139.170,272.440 140.030,271.557 140.800 C 268.658 143.326,262.000 150.036,262.000 150.432 C 262.000 150.850,260.447 152.550,255.300 157.768 C 253.485 159.608,252.000 161.228,252.000 161.369 C 252.000 161.510,250.020 163.594,247.600 166.000 C 245.180 168.406,243.200 170.650,243.200 170.987 C 243.200 171.324,243.007 171.600,242.771 171.600 C 242.175 171.600,241.201 172.634,241.196 173.271 C 241.194 173.562,240.616 174.250,239.912 174.800 C 239.207 175.350,235.880 178.545,232.518 181.900 C 229.157 185.255,226.301 188.000,226.172 188.000 C 226.043 188.000,225.236 188.730,224.380 189.621 L 222.822 191.242 217.221 185.621 C 214.141 182.530,211.422 180.000,211.179 180.000 C 210.936 180.000,210.046 179.280,209.200 178.400 C 208.354 177.520,207.514 176.799,207.331 176.798 C 207.149 176.797,206.146 175.987,205.101 174.998 C 204.057 174.009,203.008 173.200,202.770 173.200 C 202.532 173.200,201.646 172.480,200.800 171.600 C 199.954 170.720,199.057 170.000,198.805 170.000 C 198.554 170.000,197.471 169.100,196.400 168.000 C 195.329 166.900,194.238 166.000,193.976 166.000 C 193.714 166.000,192.667 165.067,191.650 163.926 C 190.632 162.786,189.007 161.121,188.038 160.226 C 187.069 159.332,184.416 156.755,182.142 154.500 C 179.869 152.245,177.737 150.400,177.405 150.400 C 177.072 150.400,176.800 150.220,176.800 150.000 C 176.800 149.780,176.440 149.600,176.000 149.600 C 175.560 149.600,175.200 149.420,175.200 149.200 C 175.200 148.980,174.761 148.800,174.224 148.800 C 173.687 148.800,173.136 148.620,173.000 148.400 C 172.864 148.180,171.154 148.000,169.200 148.000 C 167.246 148.000,165.536 148.180,165.400 148.400 C 165.264 148.620,164.623 148.800,163.976 148.800 C 163.329 148.800,162.800 148.980,162.800 149.200 C 162.800 149.420,162.440 149.600,162.000 149.600 C 161.560 149.600,161.200 149.780,161.200 150.000 C 161.200 150.220,160.840 150.400,160.400 150.400 C 159.960 150.400,159.600 150.580,159.600 150.800 C 159.600 151.020,159.330 151.200,159.000 151.200 C 158.670 151.200,158.400 151.380,158.400 151.600 C 158.400 151.820,158.080 152.000,157.688 152.000 C 157.297 152.000,156.717 152.360,156.400 152.800 C 156.083 153.240,155.543 153.600,155.200 153.600 C 154.857 153.600,154.317 153.960,154.000 154.400 C 153.683 154.840,153.175 155.200,152.872 155.200 C 152.569 155.200,151.817 155.740,151.200 156.400 C 150.583 157.060,149.791 157.600,149.440 157.600 C 149.088 157.600,148.800 157.744,148.800 157.920 C 148.800 158.096,147.975 158.762,146.967 159.399 C 145.959 160.036,144.429 161.242,143.566 162.079 C 142.704 162.916,141.895 163.600,141.768 163.600 C 141.641 163.600,140.846 164.320,140.000 165.200 C 139.154 166.080,138.282 166.800,138.062 166.800 C 137.842 166.800,136.386 168.060,134.828 169.600 C 133.269 171.140,131.805 172.400,131.574 172.400 C 131.342 172.400,131.264 172.580,131.400 172.800 C 131.536 173.020,131.350 173.200,130.987 173.200 C 130.624 173.200,128.794 174.730,126.920 176.600 C 125.046 178.470,123.346 180.000,123.142 180.000 C 122.939 180.000,120.985 181.800,118.800 184.000 C 116.615 186.200,114.642 188.000,114.414 188.000 C 114.186 188.000,114.000 188.180,114.000 188.400 C 114.000 188.620,113.807 188.800,113.572 188.800 C 113.337 188.800,110.225 191.736,106.657 195.325 C 103.089 198.913,99.862 201.967,99.485 202.112 C 99.108 202.257,98.800 202.573,98.800 202.816 C 98.800 203.386,98.078 204.057,96.700 204.768 C 96.095 205.080,95.600 205.588,95.600 205.896 C 95.600 206.469,94.668 207.600,94.196 207.600 C 93.712 207.600,90.413 210.995,90.407 211.500 C 90.403 211.775,90.061 212.000,89.647 212.000 C 88.265 212.000,88.076 214.449,88.981 220.630 C 89.301 222.813,89.934 227.930,90.387 232.000 C 91.533 242.297,91.781 242.962,93.743 241.000 C 94.073 240.670,94.500 240.400,94.692 240.400 C 95.294 240.400,97.194 239.414,97.197 239.100 C 97.199 238.935,97.520 238.800,97.912 238.800 C 98.303 238.800,98.883 238.440,99.200 238.000 C 99.517 237.560,100.097 237.200,100.488 237.200 C 100.880 237.200,101.200 237.020,101.200 236.800 C 101.200 236.580,101.436 236.400,101.725 236.400 C 102.013 236.400,102.598 236.085,103.025 235.700 C 103.451 235.315,104.295 234.745,104.900 234.432 C 105.505 234.120,106.000 233.715,106.000 233.532 C 106.000 233.350,106.230 233.200,106.512 233.200 C 106.793 233.200,107.283 232.840,107.600 232.400 C 107.917 231.960,108.457 231.600,108.800 231.600 C 109.143 231.600,109.683 231.240,110.000 230.800 C 110.317 230.360,110.780 230.000,111.029 230.000 C 111.278 230.000,112.046 229.460,112.737 228.800 C 113.428 228.140,114.192 227.600,114.436 227.600 C 114.680 227.600,115.383 227.060,116.000 226.400 C 116.617 225.740,117.317 225.200,117.557 225.200 C 117.952 225.200,119.249 224.227,120.625 222.900 C 120.910 222.625,121.311 222.400,121.517 222.400 C 121.722 222.400,122.732 221.500,123.761 220.400 C 124.790 219.300,125.817 218.400,126.042 218.400 C 126.267 218.400,127.329 217.500,128.400 216.400 C 129.471 215.300,130.551 214.400,130.800 214.400 C 131.049 214.400,132.129 213.500,133.200 212.400 C 134.271 211.300,135.309 210.400,135.507 210.400 C 135.704 210.400,137.021 209.325,138.433 208.011 C 139.845 206.697,141.132 205.617,141.293 205.611 C 141.454 205.605,142.755 204.430,144.185 203.000 C 145.615 201.570,146.983 200.400,147.224 200.400 C 147.465 200.400,148.354 199.680,149.200 198.800 C 150.046 197.920,150.941 197.200,151.191 197.200 C 151.440 197.200,152.704 196.120,154.000 194.800 C 155.296 193.480,156.508 192.400,156.695 192.400 C 156.881 192.400,157.701 191.770,158.518 191.000 C 159.334 190.230,160.146 189.600,160.323 189.600 C 160.499 189.600,161.331 188.970,162.172 188.200 C 163.013 187.430,163.850 186.800,164.032 186.800 C 164.214 186.800,164.814 186.350,165.364 185.800 C 166.761 184.402,166.817 184.427,170.424 188.000 C 172.201 189.760,173.864 191.200,174.121 191.200 C 174.377 191.200,175.515 192.190,176.651 193.400 C 177.786 194.610,178.928 195.600,179.189 195.600 C 179.449 195.600,180.354 196.320,181.200 197.200 C 182.046 198.080,182.949 198.800,183.208 198.800 C 183.467 198.800,184.183 199.340,184.800 200.000 C 185.417 200.660,186.129 201.200,186.383 201.200 C 186.637 201.200,187.904 202.280,189.200 203.600 C 190.496 204.920,191.701 206.004,191.878 206.010 C 192.400 206.026,197.200 210.700,197.200 211.193 C 197.200 211.441,198.280 212.704,199.600 214.000 C 200.920 215.296,202.000 216.560,202.000 216.809 C 202.000 217.059,202.720 217.954,203.600 218.800 C 204.480 219.646,205.200 220.555,205.200 220.822 C 205.200 221.422,207.218 223.199,207.900 223.200 C 208.175 223.200,208.401 223.335,208.403 223.500 C 208.406 223.876,210.697 225.200,211.344 225.200 C 211.608 225.200,212.083 225.560,212.400 226.000 C 212.739 226.470,213.435 226.800,214.088 226.800 C 214.700 226.800,215.200 226.980,215.200 227.200 C 215.200 227.420,215.920 227.600,216.800 227.600 C 217.680 227.600,218.400 227.780,218.400 228.000 C 218.400 228.220,219.390 228.400,220.600 228.400 C 221.810 228.400,222.800 228.220,222.800 228.000 C 222.800 227.780,223.520 227.600,224.400 227.600 C 225.280 227.600,226.000 227.420,226.000 227.200 C 226.000 226.980,226.360 226.800,226.800 226.800 C 227.240 226.800,227.600 226.620,227.600 226.400 C 227.600 226.180,227.960 226.000,228.400 226.000 C 228.840 226.000,229.200 225.820,229.200 225.600 C 229.200 225.380,229.479 225.200,229.820 225.200 C 230.570 225.200,232.753 224.105,233.509 223.348 C 233.810 223.047,234.216 222.800,234.410 222.800 C 234.605 222.800,235.214 222.350,235.764 221.800 C 236.314 221.250,236.925 220.800,237.122 220.800 C 237.320 220.800,238.046 220.260,238.737 219.600 C 239.428 218.940,240.094 218.400,240.219 218.400 C 240.343 218.400,241.504 217.320,242.800 216.000 C 244.096 214.680,245.340 213.600,245.565 213.600 C 245.985 213.600,250.921 208.987,255.331 204.474 C 264.261 195.335,269.003 190.417,271.800 187.393 C 273.560 185.491,275.945 182.963,277.100 181.776 C 278.255 180.589,279.207 179.388,279.216 179.109 C 279.225 178.829,280.328 177.610,281.667 176.400 C 284.942 173.441,289.600 168.677,289.600 168.287 C 289.600 167.877,290.474 166.921,295.900 161.393 C 298.375 158.871,300.400 156.714,300.400 156.599 C 300.400 156.484,302.065 154.685,304.100 152.601 C 306.135 150.517,308.430 148.140,309.200 147.318 L 310.600 145.823 310.599 140.212 C 310.598 127.131,309.868 100.570,309.497 100.100 C 308.784 99.197,307.830 99.629,305.700 101.822 " stroke="none" fill="#5cbc44" fill-rule="evenodd"></path><path id="path1" d="M177.200 47.619 C 177.200 47.848,173.786 48.000,168.624 48.000 C 163.337 48.000,159.952 48.153,159.800 48.400 C 159.654 48.637,157.196 48.800,153.776 48.800 C 150.192 48.800,148.000 48.952,148.000 49.200 C 148.000 49.439,146.467 49.600,144.200 49.600 C 141.933 49.600,140.400 49.761,140.400 50.000 C 140.400 50.233,139.067 50.400,137.200 50.400 C 135.333 50.400,134.000 50.567,134.000 50.800 C 134.000 51.031,132.741 51.200,131.024 51.200 C 129.387 51.200,127.936 51.380,127.800 51.600 C 127.664 51.820,126.573 52.000,125.376 52.000 C 124.179 52.000,123.200 52.180,123.200 52.400 C 123.200 52.631,121.941 52.800,120.224 52.800 C 118.587 52.800,117.136 52.980,117.000 53.200 C 116.864 53.420,115.784 53.600,114.600 53.600 C 113.416 53.600,112.336 53.780,112.200 54.000 C 112.064 54.220,111.153 54.400,110.176 54.400 C 109.199 54.400,108.400 54.580,108.400 54.800 C 108.400 55.022,107.333 55.200,106.000 55.200 C 104.667 55.200,103.600 55.378,103.600 55.600 C 103.600 55.822,102.533 56.000,101.200 56.000 C 99.867 56.000,98.800 56.178,98.800 56.400 C 98.800 56.620,97.821 56.800,96.624 56.800 C 95.427 56.800,94.336 56.980,94.200 57.200 C 94.064 57.420,93.153 57.600,92.176 57.600 C 91.199 57.600,90.400 57.754,90.400 57.942 C 90.400 58.131,88.961 58.405,87.202 58.552 C 85.443 58.698,83.541 58.994,82.976 59.209 C 82.410 59.424,81.430 59.600,80.798 59.600 C 80.165 59.600,79.536 59.780,79.400 60.000 C 79.264 60.220,78.353 60.400,77.376 60.400 C 76.399 60.400,75.600 60.580,75.600 60.800 C 75.600 61.020,74.880 61.200,74.000 61.200 C 73.120 61.200,72.400 61.380,72.400 61.600 C 72.400 62.122,68.523 62.122,68.200 61.600 C 68.064 61.380,67.344 61.200,66.600 61.200 C 65.856 61.200,65.136 61.020,65.000 60.800 C 64.864 60.580,64.324 60.400,63.800 60.400 C 63.276 60.400,62.736 60.580,62.600 60.800 C 62.464 61.020,61.911 61.200,61.371 61.200 C 59.657 61.200,55.200 64.804,55.200 66.189 C 55.200 66.525,55.020 66.800,54.800 66.800 C 54.580 66.800,54.400 67.340,54.400 68.000 C 54.400 68.660,54.220 69.200,54.000 69.200 C 53.780 69.200,53.600 69.560,53.600 70.000 C 53.600 70.440,53.420 70.800,53.200 70.800 C 52.980 70.800,52.800 71.160,52.800 71.600 C 52.800 72.040,52.620 72.400,52.400 72.400 C 52.155 72.400,52.000 74.333,52.000 77.400 C 52.000 80.467,51.845 82.400,51.600 82.400 C 51.371 82.400,51.200 83.600,51.200 85.200 C 51.200 86.800,51.029 88.000,50.800 88.000 C 50.569 88.000,50.400 89.259,50.400 90.976 C 50.400 92.613,50.220 94.064,50.000 94.200 C 49.780 94.336,49.600 95.967,49.600 97.824 C 49.600 99.808,49.435 101.200,49.200 101.200 C 48.958 101.200,48.800 102.925,48.800 105.576 C 48.800 108.063,48.627 110.060,48.400 110.200 C 47.852 110.539,47.852 142.661,48.400 143.000 C 48.639 143.148,48.800 145.737,48.800 149.424 C 48.800 153.275,48.951 155.600,49.200 155.600 C 49.442 155.600,49.600 157.333,49.600 160.000 C 49.600 162.667,49.758 164.400,50.000 164.400 C 50.240 164.400,50.400 166.000,50.400 168.400 C 50.400 170.800,50.560 172.400,50.800 172.400 C 51.031 172.400,51.200 173.667,51.200 175.400 C 51.200 177.133,51.369 178.400,51.600 178.400 C 51.829 178.400,52.000 179.600,52.000 181.200 C 52.000 182.800,52.171 184.000,52.400 184.000 C 52.622 184.000,52.800 185.067,52.800 186.400 C 52.800 187.733,52.978 188.800,53.200 188.800 C 53.433 188.800,53.600 190.125,53.600 191.976 C 53.600 193.723,53.780 195.264,54.000 195.400 C 54.220 195.536,54.400 196.717,54.400 198.024 C 54.400 199.341,54.578 200.400,54.800 200.400 C 55.031 200.400,55.200 201.667,55.200 203.400 C 55.200 205.133,55.369 206.400,55.600 206.400 C 55.822 206.400,56.000 207.467,56.000 208.800 C 56.000 210.133,56.178 211.200,56.400 211.200 C 56.631 211.200,56.800 212.467,56.800 214.200 C 56.800 215.933,56.969 217.200,57.200 217.200 C 57.431 217.200,57.600 218.467,57.600 220.200 C 57.600 221.850,57.747 223.200,57.926 223.200 C 58.218 223.200,58.905 230.118,59.435 238.400 C 59.541 240.050,59.796 241.760,60.002 242.200 C 60.208 242.640,60.466 244.530,60.575 246.400 C 60.685 248.270,60.967 251.600,61.202 253.800 C 61.438 256.000,61.725 259.510,61.842 261.600 C 61.958 263.690,62.221 265.571,62.427 265.780 C 62.632 265.989,62.800 267.823,62.800 269.856 C 62.800 271.889,62.980 273.664,63.200 273.800 C 63.441 273.949,63.600 276.730,63.600 280.800 C 63.600 284.870,63.759 287.651,64.000 287.800 C 64.500 288.109,64.533 293.600,64.035 293.600 C 63.834 293.600,63.651 295.805,63.628 298.500 C 63.604 301.310,63.418 303.457,63.193 303.533 C 62.671 303.710,62.678 309.600,63.200 309.600 C 63.422 309.600,63.600 310.667,63.600 312.000 C 63.600 313.333,63.778 314.400,64.000 314.400 C 64.220 314.400,64.400 314.940,64.400 315.600 C 64.400 316.260,64.580 316.800,64.800 316.800 C 65.020 316.800,65.200 317.074,65.200 317.409 C 65.200 320.570,73.121 324.788,79.071 324.796 C 81.441 324.799,82.508 324.965,82.943 325.400 C 83.273 325.730,83.826 326.000,84.171 326.000 C 84.517 326.000,84.800 326.180,84.800 326.400 C 84.800 326.620,85.160 326.800,85.600 326.800 C 86.040 326.800,86.400 326.980,86.400 327.200 C 86.400 327.420,86.720 327.600,87.112 327.600 C 87.503 327.600,88.083 327.960,88.400 328.400 C 88.739 328.870,89.435 329.200,90.088 329.200 C 90.700 329.200,91.201 329.335,91.203 329.500 C 91.207 329.906,93.186 330.800,94.080 330.800 C 94.476 330.800,94.800 330.980,94.800 331.200 C 94.800 331.420,95.340 331.600,96.000 331.600 C 96.660 331.600,97.200 331.780,97.200 332.000 C 97.200 332.220,97.740 332.400,98.400 332.400 C 99.060 332.400,99.600 332.580,99.600 332.800 C 99.600 333.020,100.500 333.200,101.600 333.200 C 102.700 333.200,103.600 333.380,103.600 333.600 C 103.600 333.820,104.309 334.000,105.176 334.000 C 106.043 334.000,106.864 334.180,107.000 334.400 C 107.136 334.620,108.317 334.800,109.624 334.800 C 110.941 334.800,112.000 334.978,112.000 335.200 C 112.000 335.440,113.600 335.600,116.000 335.600 C 118.446 335.600,120.000 335.758,120.000 336.007 C 120.000 336.275,124.371 336.405,132.800 336.389 C 140.639 336.373,145.600 336.215,145.600 335.982 C 145.600 335.757,147.977 335.600,151.376 335.600 C 154.796 335.600,157.254 335.437,157.400 335.200 C 157.542 334.970,159.663 334.800,162.400 334.800 C 165.137 334.800,167.258 334.630,167.400 334.400 C 167.539 334.175,169.471 334.000,171.824 334.000 C 174.341 334.000,176.000 333.841,176.000 333.600 C 176.000 333.359,177.659 333.200,180.176 333.200 C 182.529 333.200,184.461 333.025,184.600 332.800 C 184.737 332.579,186.537 332.400,188.624 332.400 C 190.875 332.400,192.400 332.238,192.400 332.000 C 192.400 331.760,194.000 331.600,196.400 331.600 C 198.800 331.600,200.400 331.440,200.400 331.200 C 200.400 330.961,201.933 330.800,204.200 330.800 C 206.467 330.800,208.000 330.639,208.000 330.400 C 208.000 330.152,210.133 330.000,213.600 330.000 C 217.067 330.000,219.200 329.848,219.200 329.600 C 219.200 329.352,221.400 329.200,225.000 329.200 C 228.600 329.200,230.800 329.048,230.800 328.800 C 230.800 328.547,233.667 328.400,238.600 328.400 C 243.533 328.400,246.400 328.253,246.400 328.000 C 246.400 327.423,247.499 327.507,247.717 328.100 C 247.863 328.500,248.006 328.500,248.430 328.100 C 248.830 327.723,251.893 327.600,260.880 327.600 C 268.560 327.600,272.800 327.458,272.800 327.200 C 272.800 326.940,278.467 326.800,289.000 326.800 C 299.533 326.800,305.200 326.940,305.200 327.200 C 305.200 327.451,307.800 327.600,312.200 327.600 C 316.600 327.600,319.200 327.749,319.200 328.000 C 319.200 328.231,320.467 328.400,322.200 328.400 C 323.933 328.400,325.200 328.231,325.200 328.000 C 325.200 327.780,325.740 327.600,326.400 327.600 C 327.060 327.600,327.600 327.420,327.600 327.200 C 327.600 326.980,328.100 326.800,328.712 326.800 C 329.365 326.800,330.061 326.470,330.400 326.000 C 330.717 325.560,331.212 325.200,331.499 325.200 C 332.161 325.200,334.800 322.821,334.800 322.224 C 334.800 321.978,335.160 321.517,335.600 321.200 C 336.040 320.883,336.400 320.314,336.400 319.935 C 336.400 319.557,336.580 319.136,336.800 319.000 C 337.020 318.864,337.200 318.133,337.200 317.376 C 337.200 316.619,337.380 316.000,337.600 316.000 C 337.835 316.000,338.000 314.600,338.000 312.600 C 338.000 310.600,337.835 309.200,337.600 309.200 C 337.380 309.200,337.200 308.660,337.200 308.000 C 337.200 307.340,337.020 306.800,336.800 306.800 C 336.580 306.800,336.400 306.440,336.400 306.000 C 336.400 305.560,336.220 305.200,336.000 305.200 C 335.780 305.200,335.600 304.840,335.600 304.400 C 335.600 303.960,335.420 303.600,335.200 303.600 C 334.980 303.600,334.800 303.060,334.800 302.400 C 334.800 301.740,334.980 301.200,335.200 301.200 C 335.420 301.200,335.600 300.660,335.600 300.000 C 335.600 299.340,335.780 298.800,336.000 298.800 C 336.248 298.800,336.400 296.675,336.400 293.224 C 336.400 290.157,336.558 287.549,336.752 287.430 C 336.945 287.310,337.134 284.200,337.170 280.518 C 337.207 276.837,337.394 273.727,337.587 273.608 C 337.779 273.489,337.985 270.829,338.044 267.696 C 338.103 264.563,338.298 262.000,338.476 262.000 C 338.654 262.000,338.800 259.941,338.800 257.424 C 338.800 254.804,338.971 252.742,339.200 252.600 C 339.436 252.454,339.600 250.023,339.600 246.656 C 339.600 243.523,339.766 240.789,339.968 240.580 C 340.170 240.371,340.381 237.050,340.435 233.200 C 340.489 229.350,340.681 226.005,340.860 225.767 C 341.040 225.528,341.307 217.068,341.453 206.967 C 341.600 196.865,341.873 188.540,342.060 188.467 C 342.578 188.264,342.465 187.291,341.900 187.083 C 341.500 186.937,341.500 186.794,341.900 186.370 C 342.540 185.691,342.639 146.400,342.000 146.400 C 341.749 146.400,341.590 143.615,341.572 138.900 C 341.557 134.775,341.360 128.700,341.134 125.400 C 340.908 122.100,340.639 117.510,340.537 115.200 C 340.434 112.890,340.181 110.829,339.975 110.620 C 339.769 110.411,339.600 108.667,339.600 106.744 C 339.600 104.821,339.420 103.136,339.200 103.000 C 338.980 102.864,338.800 101.244,338.800 99.400 C 338.800 97.556,338.620 95.936,338.400 95.800 C 338.180 95.664,338.000 94.393,338.000 92.976 C 338.000 91.525,337.825 90.400,337.600 90.400 C 337.371 90.400,337.200 89.200,337.200 87.600 C 337.200 86.000,337.029 84.800,336.800 84.800 C 336.580 84.800,336.400 83.821,336.400 82.624 C 336.400 81.427,336.220 80.336,336.000 80.200 C 335.780 80.064,335.600 79.164,335.600 78.200 C 335.600 77.236,335.420 76.336,335.200 76.200 C 334.980 76.064,334.800 75.153,334.800 74.176 C 334.800 73.199,334.980 72.400,335.200 72.400 C 335.420 72.400,335.600 72.051,335.600 71.624 C 335.600 71.197,335.780 70.736,336.000 70.600 C 336.230 70.458,336.400 68.337,336.400 65.600 C 336.400 62.863,336.230 60.742,336.000 60.600 C 335.780 60.464,335.600 60.037,335.600 59.652 C 335.600 59.266,335.240 58.564,334.800 58.092 C 334.360 57.620,334.000 57.042,334.000 56.808 C 334.000 56.148,329.693 52.000,329.009 52.000 C 328.674 52.000,328.400 51.820,328.400 51.600 C 328.400 51.380,328.040 51.200,327.600 51.200 C 327.160 51.200,326.800 51.020,326.800 50.800 C 326.800 50.580,326.260 50.400,325.600 50.400 C 324.940 50.400,324.400 50.220,324.400 50.000 C 324.400 49.740,319.067 49.600,309.200 49.600 C 299.333 49.600,294.000 49.460,294.000 49.200 C 294.000 48.631,292.262 48.704,291.630 49.300 C 291.206 49.700,291.063 49.700,290.917 49.300 C 290.774 48.910,286.740 48.800,272.590 48.800 C 261.739 48.800,254.354 48.649,254.216 48.425 C 254.079 48.204,247.682 48.036,238.569 48.014 C 227.608 47.988,222.939 47.844,222.409 47.513 C 221.833 47.153,221.522 47.167,221.032 47.573 C 220.554 47.970,220.266 47.987,219.849 47.640 C 219.144 47.056,177.200 47.035,177.200 47.619 M224.000 79.584 C 224.000 79.823,229.943 79.977,239.687 79.991 C 249.406 80.005,255.523 80.163,255.767 80.407 C 256.342 80.982,258.794 80.897,258.832 80.300 C 258.857 79.900,258.904 79.900,259.065 80.300 C 259.222 80.690,263.235 80.800,277.239 80.800 C 290.850 80.800,295.404 80.920,296.005 81.296 C 296.646 81.696,296.971 81.686,297.682 81.242 C 298.309 80.850,298.607 80.822,298.715 81.146 C 298.818 81.453,300.519 81.600,303.985 81.600 L 309.103 81.600 308.893 90.404 C 308.714 97.901,308.773 99.311,309.289 99.904 C 310.368 101.145,311.050 189.281,309.991 190.600 C 309.814 190.820,309.652 195.680,309.630 201.400 C 309.609 207.120,309.416 212.700,309.202 213.800 C 308.988 214.900,308.699 221.335,308.560 228.100 C 308.422 234.865,308.149 240.400,307.954 240.400 C 307.759 240.400,307.600 243.010,307.600 246.200 C 307.600 249.800,307.448 252.000,307.200 252.000 C 306.952 252.000,306.800 254.200,306.800 257.800 C 306.800 261.400,306.648 263.600,306.400 263.600 C 306.156 263.600,306.000 265.467,306.000 268.400 C 306.000 271.333,305.844 273.200,305.600 273.200 C 305.347 273.200,305.200 276.067,305.200 281.000 C 305.200 285.933,305.053 288.800,304.800 288.800 C 304.565 288.800,304.400 290.200,304.400 292.200 L 304.400 295.600 288.800 295.600 C 276.933 295.600,273.200 295.715,273.200 296.080 C 273.200 296.453,273.093 296.453,272.720 296.080 C 272.138 295.498,270.542 295.447,270.200 296.000 C 270.046 296.250,266.129 296.400,259.776 296.400 C 253.259 296.400,249.600 296.544,249.600 296.800 C 249.600 297.053,246.733 297.200,241.800 297.200 C 236.867 297.200,234.000 297.347,234.000 297.600 C 234.000 297.849,231.667 298.000,227.800 298.000 C 223.933 298.000,221.600 298.151,221.600 298.400 C 221.600 298.647,219.541 298.800,216.224 298.800 C 213.071 298.800,210.745 298.965,210.600 299.200 C 210.461 299.425,208.529 299.600,206.176 299.600 C 203.659 299.600,202.000 299.759,202.000 300.000 C 202.000 300.238,200.475 300.400,198.224 300.400 C 196.137 300.400,194.337 300.579,194.200 300.800 C 194.063 301.021,192.263 301.200,190.176 301.200 C 187.925 301.200,186.400 301.362,186.400 301.600 C 186.400 301.837,184.933 302.000,182.800 302.000 C 180.667 302.000,179.200 302.163,179.200 302.400 C 179.200 302.635,177.800 302.800,175.800 302.800 C 173.800 302.800,172.400 302.965,172.400 303.200 C 172.400 303.429,171.200 303.600,169.600 303.600 C 168.000 303.600,166.800 303.771,166.800 304.000 C 166.800 304.235,165.408 304.400,163.424 304.400 C 161.567 304.400,159.936 304.580,159.800 304.800 C 159.664 305.020,158.033 305.200,156.176 305.200 C 154.192 305.200,152.800 305.365,152.800 305.600 C 152.800 305.831,151.541 306.000,149.824 306.000 C 148.187 306.000,146.736 306.180,146.600 306.400 C 146.464 306.620,145.013 306.800,143.376 306.800 C 141.659 306.800,140.400 306.969,140.400 307.200 C 140.400 307.443,138.611 307.600,135.833 307.600 C 133.005 307.600,131.213 307.760,131.127 308.019 C 130.927 308.620,99.879 308.638,99.679 308.038 C 99.596 307.787,98.525 307.600,97.167 307.600 C 94.909 307.600,94.800 307.554,94.800 306.600 C 94.800 306.050,94.980 305.600,95.200 305.600 C 95.451 305.600,95.600 303.027,95.600 298.680 C 95.600 293.753,95.741 291.619,96.090 291.270 C 96.477 290.883,96.477 290.615,96.090 289.995 C 95.748 289.448,95.600 286.918,95.600 281.629 C 95.600 277.006,95.444 273.951,95.200 273.800 C 94.971 273.658,94.800 271.596,94.800 268.976 C 94.800 266.192,94.643 264.400,94.400 264.400 C 94.159 264.400,94.000 262.733,94.000 260.200 C 94.000 257.667,93.841 256.000,93.600 256.000 C 93.360 256.000,93.200 254.400,93.200 252.000 C 93.200 249.600,93.040 248.000,92.800 248.000 C 92.567 248.000,92.400 246.678,92.400 244.833 C 92.400 242.983,92.226 241.609,91.981 241.527 C 91.532 241.377,91.393 240.489,89.703 227.000 C 88.950 220.995,88.632 216.771,88.702 213.700 C 88.766 210.885,88.653 209.200,88.402 209.200 C 88.177 209.200,88.000 208.141,88.000 206.800 C 88.000 205.467,87.822 204.400,87.600 204.400 C 87.369 204.400,87.200 203.141,87.200 201.424 C 87.200 199.787,87.020 198.336,86.800 198.200 C 86.580 198.064,86.400 196.793,86.400 195.376 C 86.400 193.925,86.225 192.800,86.000 192.800 C 85.778 192.800,85.600 191.733,85.600 190.400 C 85.600 189.067,85.422 188.000,85.200 188.000 C 84.967 188.000,84.800 186.667,84.800 184.800 C 84.800 182.933,84.633 181.600,84.400 181.600 C 84.178 181.600,84.000 180.541,84.000 179.224 C 84.000 177.917,83.820 176.736,83.600 176.600 C 83.380 176.464,83.200 175.114,83.200 173.600 C 83.200 172.086,83.020 170.736,82.800 170.600 C 82.580 170.464,82.400 169.193,82.400 167.776 C 82.400 166.325,82.225 165.200,82.000 165.200 C 81.774 165.200,81.600 164.067,81.600 162.600 C 81.600 161.133,81.426 160.000,81.200 160.000 C 80.971 160.000,80.800 158.800,80.800 157.200 C 80.800 155.600,80.629 154.400,80.400 154.400 C 80.169 154.400,80.000 153.133,80.000 151.400 C 80.000 149.667,79.831 148.400,79.600 148.400 C 79.367 148.400,79.200 147.067,79.200 145.200 C 79.200 143.333,79.033 142.000,78.800 142.000 C 78.563 142.000,78.400 140.533,78.400 138.400 C 78.400 136.267,78.237 134.800,78.000 134.800 C 77.760 134.800,77.600 133.200,77.600 130.800 C 77.600 128.400,77.440 126.800,77.200 126.800 C 76.953 126.800,76.800 124.733,76.800 121.400 C 76.800 118.067,76.647 116.000,76.400 116.000 C 76.150 116.000,76.000 113.544,76.000 109.433 C 76.000 105.663,75.839 102.810,75.621 102.733 C 75.328 102.630,75.017 91.725,75.176 87.100 C 75.198 86.472,75.713 86.400,80.176 86.400 C 83.063 86.400,85.257 86.232,85.400 86.000 C 85.537 85.779,87.337 85.600,89.424 85.600 C 91.675 85.600,93.200 85.438,93.200 85.200 C 93.200 84.957,94.992 84.800,97.776 84.800 C 100.396 84.800,102.458 84.629,102.600 84.400 C 102.739 84.175,104.671 84.000,107.024 84.000 C 109.541 84.000,111.200 83.841,111.200 83.600 C 111.200 83.354,113.200 83.200,116.400 83.200 C 119.600 83.200,121.600 83.046,121.600 82.800 C 121.600 82.552,123.800 82.400,127.400 82.400 C 131.000 82.400,133.200 82.248,133.200 82.000 C 133.200 81.752,135.400 81.600,139.000 81.600 C 142.600 81.600,144.800 81.448,144.800 81.200 C 144.800 80.951,147.107 80.800,150.920 80.800 C 154.388 80.800,157.210 80.630,157.432 80.408 C 157.664 80.176,161.547 80.003,166.912 79.984 C 172.312 79.966,176.000 79.801,176.000 79.577 C 176.000 79.345,185.246 79.200,200.000 79.200 C 215.073 79.200,224.000 79.343,224.000 79.584 " stroke="none" fill="#fcfcfc" fill-rule="evenodd"></path></g></svg>